<?xml version="1.0"?><svg xmlns="http://www.w3.org/2000/svg" version="1.1" width="960" height="540">


<defs><clipPath id="chart0-0"><rect x="0.46952846324337" y="0" width="9.8673208902119" height="0.4318254212475" /></clipPath></defs>
<g transform="translate(100 440) scale(87.156383132639 -1018.9302860607) translate(-0.46952846324337 -0)">
<rect x="0.46952846324337" y="0" width="0.011473628942107" height="9.7290846287597e-05" style="fill:#000080"/>
<rect x="0.57279112372233" y="0" width="0.011473628942107" height="0.00019458169257519" style="fill:#000080"/>
<rect x="0.59573838160655" y="0" width="0.011473628942107" height="0.00019458169257519" style="fill:#000080"/>
<rect x="0.61868563949076" y="0" width="0.011473628942107" height="9.7290846287597e-05" style="fill:#000080"/>
<rect x="0.66458015525919" y="0" width="0.011473628942107" height="9.7290846287597e-05" style="fill:#000080"/>
<rect x="0.67605378420129" y="0" width="0.011473628942107" height="0.00029187253886279" style="fill:#000080"/>
<rect x="0.6875274131434" y="0" width="0.011473628942107" height="0.00029187253886279" style="fill:#000080"/>
<rect x="0.69900104208551" y="0" width="0.011473628942107" height="9.7290846287597e-05" style="fill:#000080"/>
<rect x="0.71047467102761" y="0" width="0.011473628942107" height="0.00029187253886279" style="fill:#000080"/>
<rect x="0.72194829996972" y="0" width="0.011473628942107" height="9.7290846287597e-05" style="fill:#000080"/>
<rect x="0.73342192891183" y="0" width="0.011473628942107" height="0.00029187253886279" style="fill:#000080"/>
<rect x="0.74489555785394" y="0" width="0.011473628942107" height="0.00029187253886279" style="fill:#000080"/>
<rect x="0.75636918679604" y="0" width="0.011473628942107" height="9.7290846287597e-05" style="fill:#000080"/>
<rect x="0.76784281573815" y="0" width="0.011473628942107" height="0.00048645423143798" style="fill:#000080"/>
<rect x="0.77931644468026" y="0" width="0.011473628942107" height="0.00029187253886279" style="fill:#000080"/>
<rect x="0.79079007362236" y="0" width="0.011473628942107" height="0.00058374507772558" style="fill:#000080"/>
<rect x="0.80226370256447" y="0" width="0.011473628942107" height="0.00019458169257519" style="fill:#000080"/>
<rect x="0.81373733150658" y="0" width="0.011473628942107" height="0.00048645423143798" style="fill:#000080"/>
<rect x="0.82521096044868" y="0" width="0.011473628942107" height="0.00048645423143798" style="fill:#000080"/>
<rect x="0.83668458939079" y="0" width="0.011473628942107" height="0.00058374507772558" style="fill:#000080"/>
<rect x="0.8481582183329" y="0" width="0.011473628942107" height="0.00038916338515039" style="fill:#000080"/>
<rect x="0.859631847275" y="0" width="0.011473628942107" height="0.00058374507772558" style="fill:#000080"/>
<rect x="0.87110547621711" y="0" width="0.011473628942107" height="0.00058374507772558" style="fill:#000080"/>
<rect x="0.88257910515922" y="0" width="0.011473628942107" height="0.00029187253886279" style="fill:#000080"/>
<rect x="0.89405273410133" y="0" width="0.011473628942107" height="0.00068103592401318" style="fill:#000080"/>
<rect x="0.90552636304343" y="0" width="0.011473628942107" height="0.0010701993091636" style="fill:#000080"/>
<rect x="0.91699999198554" y="0" width="0.011473628942107" height="0.0011674901554512" style="fill:#000080"/>
<rect x="0.92847362092765" y="0" width="0.011473628942107" height="0.00068103592401318" style="fill:#000080"/>
<rect x="0.93994724986975" y="0" width="0.011473628942107" height="0.0018485260794643" style="fill:#000080"/>
<rect x="0.95142087881186" y="0" width="0.011473628942107" height="0.0011674901554512" style="fill:#000080"/>
<rect x="0.96289450775397" y="0" width="0.011473628942107" height="0.00097290846287597" style="fill:#000080"/>
<rect x="0.97436813669607" y="0" width="0.011473628942107" height="0.00068103592401318" style="fill:#000080"/>
<rect x="0.98584176563818" y="0" width="0.011473628942107" height="0.0016539443868891" style="fill:#000080"/>
<rect x="0.99731539458029" y="0" width="0.011473628942107" height="0.0015566535406016" style="fill:#000080"/>
<rect x="1.0087890235224" y="0" width="0.011473628942107" height="0.0012647810017388" style="fill:#000080"/>
<rect x="1.0202626524645" y="0" width="0.011473628942107" height="0.0021403986183271" style="fill:#000080"/>
<rect x="1.0317362814066" y="0" width="0.011473628942107" height="0.0026268528497651" style="fill:#000080"/>
<rect x="1.0432099103487" y="0" width="0.011473628942107" height="0.0024322711571899" style="fill:#000080"/>
<rect x="1.0546835392908" y="0" width="0.011473628942107" height="0.0021403986183271" style="fill:#000080"/>
<rect x="1.0661571682329" y="0" width="0.011473628942107" height="0.0028214345423403" style="fill:#000080"/>
<rect x="1.077630797175" y="0" width="0.011473628942107" height="0.0026268528497651" style="fill:#000080"/>
<rect x="1.0891044261171" y="0" width="0.011473628942107" height="0.0017512352331767" style="fill:#000080"/>
<rect x="1.1005780550592" y="0" width="0.011473628942107" height="0.0026268528497651" style="fill:#000080"/>
<rect x="1.1120516840014" y="0" width="0.011473628942107" height="0.0037943430052163" style="fill:#000080"/>
<rect x="1.1235253129435" y="0" width="0.011473628942107" height="0.0030160162349155" style="fill:#000080"/>
<rect x="1.1349989418856" y="0" width="0.011473628942107" height="0.0035024704663535" style="fill:#000080"/>
<rect x="1.1464725708277" y="0" width="0.011473628942107" height="0.0034051796200659" style="fill:#000080"/>
<rect x="1.1579461997698" y="0" width="0.011473628942107" height="0.0040862155440791" style="fill:#000080"/>
<rect x="1.1694198287119" y="0" width="0.011473628942107" height="0.0043780880829419" style="fill:#000080"/>
<rect x="1.180893457654" y="0" width="0.011473628942107" height="0.0049618331606674" style="fill:#000080"/>
<rect x="1.1923670865961" y="0" width="0.011473628942107" height="0.0041835063903667" style="fill:#000080"/>
<rect x="1.2038407155382" y="0" width="0.011473628942107" height="0.0047672514680923" style="fill:#000080"/>
<rect x="1.2153143444803" y="0" width="0.011473628942107" height="0.0051564148532426" style="fill:#000080"/>
<rect x="1.2267879734224" y="0" width="0.011473628942107" height="0.007004940932707" style="fill:#000080"/>
<rect x="1.2382616023645" y="0" width="0.011473628942107" height="0.0056428690846806" style="fill:#000080"/>
<rect x="1.2497352313066" y="0" width="0.011473628942107" height="0.0071022317789946" style="fill:#000080"/>
<rect x="1.2612088602487" y="0" width="0.011473628942107" height="0.0067130683938442" style="fill:#000080"/>
<rect x="1.2726824891909" y="0" width="0.011473628942107" height="0.0066157775475566" style="fill:#000080"/>
<rect x="1.284156118133" y="0" width="0.011473628942107" height="0.0072968134715698" style="fill:#000080"/>
<rect x="1.2956297470751" y="0" width="0.011473628942107" height="0.0085615944733085" style="fill:#000080"/>
<rect x="1.3071033760172" y="0" width="0.011473628942107" height="0.0077832677030078" style="fill:#000080"/>
<rect x="1.3185770049593" y="0" width="0.011473628942107" height="0.0076859768567202" style="fill:#000080"/>
<rect x="1.3300506339014" y="0" width="0.011473628942107" height="0.0084643036270209" style="fill:#000080"/>
<rect x="1.3415242628435" y="0" width="0.011473628942107" height="0.007977849395583" style="fill:#000080"/>
<rect x="1.3529978917856" y="0" width="0.011473628942107" height="0.0095345029361845" style="fill:#000080"/>
<rect x="1.3644715207277" y="0" width="0.011473628942107" height="0.011383029015649" style="fill:#000080"/>
<rect x="1.3759451496698" y="0" width="0.011473628942107" height="0.010215538860198" style="fill:#000080"/>
<rect x="1.3874187786119" y="0" width="0.011473628942107" height="0.011577610708224" style="fill:#000080"/>
<rect x="1.398892407554" y="0" width="0.011473628942107" height="0.011188447323074" style="fill:#000080"/>
<rect x="1.4103660364961" y="0" width="0.011473628942107" height="0.011772192400799" style="fill:#000080"/>
<rect x="1.4218396654382" y="0" width="0.011473628942107" height="0.013620718480264" style="fill:#000080"/>
<rect x="1.4333132943803" y="0" width="0.011473628942107" height="0.012064064939662" style="fill:#000080"/>
<rect x="1.4447869233225" y="0" width="0.011473628942107" height="0.014399045250564" style="fill:#000080"/>
<rect x="1.4562605522646" y="0" width="0.011473628942107" height="0.013815300172839" style="fill:#000080"/>
<rect x="1.4677341812067" y="0" width="0.011473628942107" height="0.014107172711702" style="fill:#000080"/>
<rect x="1.4792078101488" y="0" width="0.011473628942107" height="0.017706934024343" style="fill:#000080"/>
<rect x="1.4906814390909" y="0" width="0.011473628942107" height="0.01780422487063" style="fill:#000080"/>
<rect x="1.502155068033" y="0" width="0.011473628942107" height="0.015274662867153" style="fill:#000080"/>
<rect x="1.5136286969751" y="0" width="0.011473628942107" height="0.015663826252303" style="fill:#000080"/>
<rect x="1.5251023259172" y="0" width="0.011473628942107" height="0.019555460103807" style="fill:#000080"/>
<rect x="1.5365759548593" y="0" width="0.011473628942107" height="0.018096097409493" style="fill:#000080"/>
<rect x="1.5480495838014" y="0" width="0.011473628942107" height="0.018777133333506" style="fill:#000080"/>
<rect x="1.5595232127435" y="0" width="0.011473628942107" height="0.019458169257519" style="fill:#000080"/>
<rect x="1.5709968416856" y="0" width="0.011473628942107" height="0.021695858722134" style="fill:#000080"/>
<rect x="1.5824704706277" y="0" width="0.011473628942107" height="0.019166296718657" style="fill:#000080"/>
<rect x="1.5939440995698" y="0" width="0.011473628942107" height="0.021501277029559" style="fill:#000080"/>
<rect x="1.605417728512" y="0" width="0.011473628942107" height="0.023349803109023" style="fill:#000080"/>
<rect x="1.6168913574541" y="0" width="0.011473628942107" height="0.022085022107285" style="fill:#000080"/>
<rect x="1.6283649863962" y="0" width="0.011473628942107" height="0.02471187495705" style="fill:#000080"/>
<rect x="1.6398386153383" y="0" width="0.011473628942107" height="0.024614584110762" style="fill:#000080"/>
<rect x="1.6513122442804" y="0" width="0.011473628942107" height="0.023447093955311" style="fill:#000080"/>
<rect x="1.6627858732225" y="0" width="0.011473628942107" height="0.027825182038253" style="fill:#000080"/>
<rect x="1.6742595021646" y="0" width="0.011473628942107" height="0.028214345423403" style="fill:#000080"/>
<rect x="1.6857331311067" y="0" width="0.011473628942107" height="0.030257453195443" style="fill:#000080"/>
<rect x="1.6972067600488" y="0" width="0.011473628942107" height="0.031424943350894" style="fill:#000080"/>
<rect x="1.7086803889909" y="0" width="0.011473628942107" height="0.028603508808554" style="fill:#000080"/>
<rect x="1.720154017933" y="0" width="0.011473628942107" height="0.029868289810292" style="fill:#000080"/>
<rect x="1.7316276468751" y="0" width="0.011473628942107" height="0.034051796200659" style="fill:#000080"/>
<rect x="1.7431012758172" y="0" width="0.011473628942107" height="0.035121995509823" style="fill:#000080"/>
<rect x="1.7545749047593" y="0" width="0.011473628942107" height="0.035997613126411" style="fill:#000080"/>
<rect x="1.7660485337015" y="0" width="0.011473628942107" height="0.034149087046947" style="fill:#000080"/>
<rect x="1.7775221626436" y="0" width="0.011473628942107" height="0.037456975820725" style="fill:#000080"/>
<rect x="1.7889957915857" y="0" width="0.011473628942107" height="0.039013629361326" style="fill:#000080"/>
<rect x="1.8004694205278" y="0" width="0.011473628942107" height="0.038429884283601" style="fill:#000080"/>
<rect x="1.8119430494699" y="0" width="0.011473628942107" height="0.041932354749954" style="fill:#000080"/>
<rect x="1.823416678412" y="0" width="0.011473628942107" height="0.041251318825941" style="fill:#000080"/>
<rect x="1.8348903073541" y="0" width="0.011473628942107" height="0.044267335060857" style="fill:#000080"/>
<rect x="1.8463639362962" y="0" width="0.011473628942107" height="0.044170044214569" style="fill:#000080"/>
<rect x="1.8578375652383" y="0" width="0.011473628942107" height="0.043586299136843" style="fill:#000080"/>
<rect x="1.8693111941804" y="0" width="0.011473628942107" height="0.04494837098487" style="fill:#000080"/>
<rect x="1.8807848231225" y="0" width="0.011473628942107" height="0.048742713990086" style="fill:#000080"/>
<rect x="1.8922584520646" y="0" width="0.011473628942107" height="0.047575223834635" style="fill:#000080"/>
<rect x="1.9037320810067" y="0" width="0.011473628942107" height="0.050007494991825" style="fill:#000080"/>
<rect x="1.9152057099488" y="0" width="0.011473628942107" height="0.05263434784159" style="fill:#000080"/>
<rect x="1.9266793388909" y="0" width="0.011473628942107" height="0.051953311917577" style="fill:#000080"/>
<rect x="1.9381529678331" y="0" width="0.011473628942107" height="0.052537056995302" style="fill:#000080"/>
<rect x="1.9496265967752" y="0" width="0.011473628942107" height="0.054969328152492" style="fill:#000080"/>
<rect x="1.9611002257173" y="0" width="0.011473628942107" height="0.058569089465133" style="fill:#000080"/>
<rect x="1.9725738546594" y="0" width="0.011473628942107" height="0.057304308463395" style="fill:#000080"/>
<rect x="1.9840474836015" y="0" width="0.011473628942107" height="0.060904069776036" style="fill:#000080"/>
<rect x="1.9955211125436" y="0" width="0.011473628942107" height="0.056136818307943" style="fill:#000080"/>
<rect x="2.0069947414857" y="0" width="0.011473628942107" height="0.06236343247035" style="fill:#000080"/>
<rect x="2.0184683704278" y="0" width="0.011473628942107" height="0.065865902936703" style="fill:#000080"/>
<rect x="2.0299419993699" y="0" width="0.011473628942107" height="0.061487814853761" style="fill:#000080"/>
<rect x="2.041415628312" y="0" width="0.011473628942107" height="0.065087576166402" style="fill:#000080"/>
<rect x="2.0528892572541" y="0" width="0.011473628942107" height="0.068590046632756" style="fill:#000080"/>
<rect x="2.0643628861962" y="0" width="0.011473628942107" height="0.064211958549814" style="fill:#000080"/>
<rect x="2.0758365151383" y="0" width="0.011473628942107" height="0.066936102245867" style="fill:#000080"/>
<rect x="2.0873101440804" y="0" width="0.011473628942107" height="0.066449648014429" style="fill:#000080"/>
<rect x="2.0987837730226" y="0" width="0.011473628942107" height="0.067325265631017" style="fill:#000080"/>
<rect x="2.1102574019647" y="0" width="0.011473628942107" height="0.074622079102587" style="fill:#000080"/>
<rect x="2.1217310309068" y="0" width="0.011473628942107" height="0.07287084386941" style="fill:#000080"/>
<rect x="2.1332046598489" y="0" width="0.011473628942107" height="0.077929967876365" style="fill:#000080"/>
<rect x="2.144678288791" y="0" width="0.011473628942107" height="0.078027258722653" style="fill:#000080"/>
<rect x="2.1561519177331" y="0" width="0.011473628942107" height="0.080362239033555" style="fill:#000080"/>
<rect x="2.1676255466752" y="0" width="0.011473628942107" height="0.078611003800378" style="fill:#000080"/>
<rect x="2.1790991756173" y="0" width="0.011473628942107" height="0.087269889119974" style="fill:#000080"/>
<rect x="2.1905728045594" y="0" width="0.011473628942107" height="0.080751402418705" style="fill:#000080"/>
<rect x="2.2020464335015" y="0" width="0.011473628942107" height="0.082697219344457" style="fill:#000080"/>
<rect x="2.2135200624436" y="0" width="0.011473628942107" height="0.092231722280642" style="fill:#000080"/>
<rect x="2.2249936913857" y="0" width="0.011473628942107" height="0.088145506736563" style="fill:#000080"/>
<rect x="2.2364673203278" y="0" width="0.011473628942107" height="0.088534670121713" style="fill:#000080"/>
<rect x="2.2479409492699" y="0" width="0.011473628942107" height="0.095928774439571" style="fill:#000080"/>
<rect x="2.259414578212" y="0" width="0.011473628942107" height="0.096998973748734" style="fill:#000080"/>
<rect x="2.2708882071542" y="0" width="0.011473628942107" height="0.094955865976695" style="fill:#000080"/>
<rect x="2.2823618360963" y="0" width="0.011473628942107" height="0.097388137133885" style="fill:#000080"/>
<rect x="2.2938354650384" y="0" width="0.011473628942107" height="0.10059873506138" style="fill:#000080"/>
<rect x="2.3053090939805" y="0" width="0.011473628942107" height="0.10137706183168" style="fill:#000080"/>
<rect x="2.3167827229226" y="0" width="0.011473628942107" height="0.10322558791114" style="fill:#000080"/>
<rect x="2.3282563518647" y="0" width="0.011473628942107" height="0.10225267944826" style="fill:#000080"/>
<rect x="2.3397299808068" y="0" width="0.011473628942107" height="0.10342016960372" style="fill:#000080"/>
<rect x="2.3512036097489" y="0" width="0.011473628942107" height="0.10536598652947" style="fill:#000080"/>
<rect x="2.362677238691" y="0" width="0.011473628942107" height="0.11100885561415" style="fill:#000080"/>
<rect x="2.3741508676331" y="0" width="0.011473628942107" height="0.11256550915475" style="fill:#000080"/>
<rect x="2.3856244965752" y="0" width="0.011473628942107" height="0.10731180345522" style="fill:#000080"/>
<rect x="2.3970981255173" y="0" width="0.011473628942107" height="0.11577610708224" style="fill:#000080"/>
<rect x="2.4085717544594" y="0" width="0.011473628942107" height="0.11383029015649" style="fill:#000080"/>
<rect x="2.4200453834015" y="0" width="0.011473628942107" height="0.11830566908572" style="fill:#000080"/>
<rect x="2.4315190123437" y="0" width="0.011473628942107" height="0.12336479309267" style="fill:#000080"/>
<rect x="2.4429926412858" y="0" width="0.011473628942107" height="0.12034877685776" style="fill:#000080"/>
<rect x="2.4544662702279" y="0" width="0.011473628942107" height="0.11957045008746" style="fill:#000080"/>
<rect x="2.46593989917" y="0" width="0.011473628942107" height="0.13163451502712" style="fill:#000080"/>
<rect x="2.4774135281121" y="0" width="0.011473628942107" height="0.12949411640879" style="fill:#000080"/>
<rect x="2.4888871570542" y="0" width="0.011473628942107" height="0.12959140725508" style="fill:#000080"/>
<rect x="2.5003607859963" y="0" width="0.011473628942107" height="0.13270471433628" style="fill:#000080"/>
<rect x="2.5118344149384" y="0" width="0.011473628942107" height="0.12647810017388" style="fill:#000080"/>
<rect x="2.5233080438805" y="0" width="0.011473628942107" height="0.13299658687515" style="fill:#000080"/>
<rect x="2.5347816728226" y="0" width="0.011473628942107" height="0.13358033195287" style="fill:#000080"/>
<rect x="2.5462553017647" y="0" width="0.011473628942107" height="0.1411690179633" style="fill:#000080"/>
<rect x="2.5577289307068" y="0" width="0.011473628942107" height="0.13922320103755" style="fill:#000080"/>
<rect x="2.5692025596489" y="0" width="0.011473628942107" height="0.14029340034671" style="fill:#000080"/>
<rect x="2.580676188591" y="0" width="0.011473628942107" height="0.14700646874056" style="fill:#000080"/>
<rect x="2.5921498175331" y="0" width="0.011473628942107" height="0.14564439689253" style="fill:#000080"/>
<rect x="2.6036234464753" y="0" width="0.011473628942107" height="0.14885499482002" style="fill:#000080"/>
<rect x="2.6150970754174" y="0" width="0.011473628942107" height="0.15118997513093" style="fill:#000080"/>
<rect x="2.6265707043595" y="0" width="0.011473628942107" height="0.1529412103641" style="fill:#000080"/>
<rect x="2.6380443333016" y="0" width="0.011473628942107" height="0.16043260552825" style="fill:#000080"/>
<rect x="2.6495179622437" y="0" width="0.011473628942107" height="0.15673555336932" style="fill:#000080"/>
<rect x="2.6609915911858" y="0" width="0.011473628942107" height="0.16140551399112" style="fill:#000080"/>
<rect x="2.6724652201279" y="0" width="0.011473628942107" height="0.15654097167674" style="fill:#000080"/>
<rect x="2.68393884907" y="0" width="0.011473628942107" height="0.16111364145226" style="fill:#000080"/>
<rect x="2.6954124780121" y="0" width="0.011473628942107" height="0.15634638998417" style="fill:#000080"/>
<rect x="2.7068861069542" y="0" width="0.011473628942107" height="0.15770846183219" style="fill:#000080"/>
<rect x="2.7183597358963" y="0" width="0.011473628942107" height="0.15780575267848" style="fill:#000080"/>
<rect x="2.7298333648384" y="0" width="0.011473628942107" height="0.17463706908624" style="fill:#000080"/>
<rect x="2.7413069937805" y="0" width="0.011473628942107" height="0.16695109222952" style="fill:#000080"/>
<rect x="2.7527806227226" y="0" width="0.011473628942107" height="0.16986981761814" style="fill:#000080"/>
<rect x="2.7642542516648" y="0" width="0.011473628942107" height="0.17687475855085" style="fill:#000080"/>
<rect x="2.7757278806069" y="0" width="0.011473628942107" height="0.17823683039888" style="fill:#000080"/>
<rect x="2.787201509549" y="0" width="0.011473628942107" height="0.17463706908624" style="fill:#000080"/>
<rect x="2.7986751384911" y="0" width="0.011473628942107" height="0.17872328463032" style="fill:#000080"/>
<rect x="2.8101487674332" y="0" width="0.011473628942107" height="0.17852870293774" style="fill:#000080"/>
<rect x="2.8216223963753" y="0" width="0.011473628942107" height="0.18154471917266" style="fill:#000080"/>
<rect x="2.8330960253174" y="0" width="0.011473628942107" height="0.18786862418135" style="fill:#000080"/>
<rect x="2.8445696542595" y="0" width="0.011473628942107" height="0.18553364387045" style="fill:#000080"/>
<rect x="2.8560432832016" y="0" width="0.011473628942107" height="0.18961985941453" style="fill:#000080"/>
<rect x="2.8675169121437" y="0" width="0.011473628942107" height="0.1867011340259" style="fill:#000080"/>
<rect x="2.8789905410858" y="0" width="0.011473628942107" height="0.18952256856824" style="fill:#000080"/>
<rect x="2.8904641700279" y="0" width="0.011473628942107" height="0.1890361143368" style="fill:#000080"/>
<rect x="2.90193779897" y="0" width="0.011473628942107" height="0.18961985941453" style="fill:#000080"/>
<rect x="2.9134114279121" y="0" width="0.011473628942107" height="0.18884153264423" style="fill:#000080"/>
<rect x="2.9248850568542" y="0" width="0.011473628942107" height="0.20382432297252" style="fill:#000080"/>
<rect x="2.9363586857964" y="0" width="0.011473628942107" height="0.20178121520048" style="fill:#000080"/>
<rect x="2.9478323147385" y="0" width="0.011473628942107" height="0.19973810742844" style="fill:#000080"/>
<rect x="2.9593059436806" y="0" width="0.011473628942107" height="0.19409523834376" style="fill:#000080"/>
<rect x="2.9707795726227" y="0" width="0.011473628942107" height="0.199251653197" style="fill:#000080"/>
<rect x="2.9822532015648" y="0" width="0.011473628942107" height="0.20538097651312" style="fill:#000080"/>
<rect x="2.9937268305069" y="0" width="0.011473628942107" height="0.19672209119352" style="fill:#000080"/>
<rect x="3.005200459449" y="0" width="0.011473628942107" height="0.20713221174629" style="fill:#000080"/>
<rect x="3.0166740883911" y="0" width="0.011473628942107" height="0.2046999405891" style="fill:#000080"/>
<rect x="3.0281477173332" y="0" width="0.011473628942107" height="0.2000299799673" style="fill:#000080"/>
<rect x="3.0396213462753" y="0" width="0.011473628942107" height="0.20995364628863" style="fill:#000080"/>
<rect x="3.0510949752174" y="0" width="0.011473628942107" height="0.21501277029559" style="fill:#000080"/>
<rect x="3.0625686041595" y="0" width="0.011473628942107" height="0.21763962314535" style="fill:#000080"/>
<rect x="3.0740422331016" y="0" width="0.011473628942107" height="0.2102455188275" style="fill:#000080"/>
<rect x="3.0855158620437" y="0" width="0.011473628942107" height="0.21754233229907" style="fill:#000080"/>
<rect x="3.0969894909859" y="0" width="0.011473628942107" height="0.21014822798121" style="fill:#000080"/>
<rect x="3.108463119928" y="0" width="0.011473628942107" height="0.22493643661692" style="fill:#000080"/>
<rect x="3.1199367488701" y="0" width="0.011473628942107" height="0.22026647599512" style="fill:#000080"/>
<rect x="3.1314103778122" y="0" width="0.011473628942107" height="0.22542289084836" style="fill:#000080"/>
<rect x="3.1428840067543" y="0" width="0.011473628942107" height="0.22697954438896" style="fill:#000080"/>
<rect x="3.1543576356964" y="0" width="0.011473628942107" height="0.23398448532167" style="fill:#000080"/>
<rect x="3.1658312646385" y="0" width="0.011473628942107" height="0.21968273091739" style="fill:#000080"/>
<rect x="3.1773048935806" y="0" width="0.011473628942107" height="0.23164950501077" style="fill:#000080"/>
<rect x="3.1887785225227" y="0" width="0.011473628942107" height="0.22863348877585" style="fill:#000080"/>
<rect x="3.2002521514648" y="0" width="0.011473628942107" height="0.23661133817144" style="fill:#000080"/>
<rect x="3.2117257804069" y="0" width="0.011473628942107" height="0.24011380863779" style="fill:#000080"/>
<rect x="3.223199409349" y="0" width="0.011473628942107" height="0.24449189672073" style="fill:#000080"/>
<rect x="3.2346730382911" y="0" width="0.011473628942107" height="0.25237245527003" style="fill:#000080"/>
<rect x="3.2461466672332" y="0" width="0.011473628942107" height="0.22522830915579" style="fill:#000080"/>
<rect x="3.2576202961753" y="0" width="0.011473628942107" height="0.24040568117665" style="fill:#000080"/>
<rect x="3.2690939251175" y="0" width="0.011473628942107" height="0.2502320566517" style="fill:#000080"/>
<rect x="3.2805675540596" y="0" width="0.011473628942107" height="0.23875173678976" style="fill:#000080"/>
<rect x="3.2920411830017" y="0" width="0.011473628942107" height="0.24060026286923" style="fill:#000080"/>
<rect x="3.3035148119438" y="0" width="0.011473628942107" height="0.24818894887966" style="fill:#000080"/>
<rect x="3.3149884408859" y="0" width="0.011473628942107" height="0.24167046217839" style="fill:#000080"/>
<rect x="3.326462069828" y="0" width="0.011473628942107" height="0.25013476580541" style="fill:#000080"/>
<rect x="3.3379356987701" y="0" width="0.011473628942107" height="0.25110767426829" style="fill:#000080"/>
<rect x="3.3494093277122" y="0" width="0.011473628942107" height="0.24906456649625" style="fill:#000080"/>
<rect x="3.3608829566543" y="0" width="0.011473628942107" height="0.24274066148755" style="fill:#000080"/>
<rect x="3.3723565855964" y="0" width="0.011473628942107" height="0.25470743558093" style="fill:#000080"/>
<rect x="3.3838302145385" y="0" width="0.011473628942107" height="0.25159412849973" style="fill:#000080"/>
<rect x="3.3953038434806" y="0" width="0.011473628942107" height="0.25402639965692" style="fill:#000080"/>
<rect x="3.4067774724227" y="0" width="0.011473628942107" height="0.25188600103859" style="fill:#000080"/>
<rect x="3.4182511013648" y="0" width="0.011473628942107" height="0.26395006597825" style="fill:#000080"/>
<rect x="3.429724730307" y="0" width="0.011473628942107" height="0.25665325250668" style="fill:#000080"/>
<rect x="3.4411983592491" y="0" width="0.011473628942107" height="0.2596692687416" style="fill:#000080"/>
<rect x="3.4526719881912" y="0" width="0.011473628942107" height="0.25869636027872" style="fill:#000080"/>
<rect x="3.4641456171333" y="0" width="0.011473628942107" height="0.26463110190226" style="fill:#000080"/>
<rect x="3.4756192460754" y="0" width="0.011473628942107" height="0.24682687703163" style="fill:#000080"/>
<rect x="3.4870928750175" y="0" width="0.011473628942107" height="0.25762616096956" style="fill:#000080"/>
<rect x="3.4985665039596" y="0" width="0.011473628942107" height="0.26657691882802" style="fill:#000080"/>
<rect x="3.5100401329017" y="0" width="0.011473628942107" height="0.26093404974334" style="fill:#000080"/>
<rect x="3.5215137618438" y="0" width="0.011473628942107" height="0.25986385043417" style="fill:#000080"/>
<rect x="3.5329873907859" y="0" width="0.011473628942107" height="0.26891189913892" style="fill:#000080"/>
<rect x="3.544461019728" y="0" width="0.011473628942107" height="0.26540942867256" style="fill:#000080"/>
<rect x="3.5559346486701" y="0" width="0.011473628942107" height="0.26998209844808" style="fill:#000080"/>
<rect x="3.5674082776122" y="0" width="0.011473628942107" height="0.27017668014066" style="fill:#000080"/>
<rect x="3.5788819065543" y="0" width="0.011473628942107" height="0.25830719689357" style="fill:#000080"/>
<rect x="3.5903555354964" y="0" width="0.011473628942107" height="0.26249070328394" style="fill:#000080"/>
<rect x="3.6018291644386" y="0" width="0.011473628942107" height="0.27076042521838" style="fill:#000080"/>
<rect x="3.6133027933807" y="0" width="0.011473628942107" height="0.26871731744634" style="fill:#000080"/>
<rect x="3.6247764223228" y="0" width="0.011473628942107" height="0.26365819343939" style="fill:#000080"/>
<rect x="3.6362500512649" y="0" width="0.011473628942107" height="0.26560401036514" style="fill:#000080"/>
<rect x="3.647723680207" y="0" width="0.011473628942107" height="0.27183062452755" style="fill:#000080"/>
<rect x="3.6591973091491" y="0" width="0.011473628942107" height="0.27776536615109" style="fill:#000080"/>
<rect x="3.6706709380912" y="0" width="0.011473628942107" height="0.26803628152233" style="fill:#000080"/>
<rect x="3.6821445670333" y="0" width="0.011473628942107" height="0.27747349361223" style="fill:#000080"/>
<rect x="3.6936181959754" y="0" width="0.011473628942107" height="0.2768897485345" style="fill:#000080"/>
<rect x="3.7050918249175" y="0" width="0.011473628942107" height="0.28574321554667" style="fill:#000080"/>
<rect x="3.7165654538596" y="0" width="0.011473628942107" height="0.26930106252407" style="fill:#000080"/>
<rect x="3.7280390828017" y="0" width="0.011473628942107" height="0.272998114683" style="fill:#000080"/>
<rect x="3.7395127117438" y="0" width="0.011473628942107" height="0.27406831399216" style="fill:#000080"/>
<rect x="3.7509863406859" y="0" width="0.011473628942107" height="0.27581954922534" style="fill:#000080"/>
<rect x="3.7624599696281" y="0" width="0.011473628942107" height="0.27387373229959" style="fill:#000080"/>
<rect x="3.7739335985702" y="0" width="0.011473628942107" height="0.26842544490748" style="fill:#000080"/>
<rect x="3.7854072275123" y="0" width="0.011473628942107" height="0.26871731744634" style="fill:#000080"/>
<rect x="3.7968808564544" y="0" width="0.011473628942107" height="0.27367915060701" style="fill:#000080"/>
<rect x="3.8083544853965" y="0" width="0.011473628942107" height="0.2737764414533" style="fill:#000080"/>
<rect x="3.8198281143386" y="0" width="0.011473628942107" height="0.2784464020751" style="fill:#000080"/>
<rect x="3.8313017432807" y="0" width="0.011473628942107" height="0.27650058514935" style="fill:#000080"/>
<rect x="3.8427753722228" y="0" width="0.011473628942107" height="0.27718162107336" style="fill:#000080"/>
<rect x="3.8542490011649" y="0" width="0.011473628942107" height="0.287883614165" style="fill:#000080"/>
<rect x="3.865722630107" y="0" width="0.011473628942107" height="0.272998114683" style="fill:#000080"/>
<rect x="3.8771962590491" y="0" width="0.011473628942107" height="0.27319269637557" style="fill:#000080"/>
<rect x="3.8886698879912" y="0" width="0.011473628942107" height="0.27241436960527" style="fill:#000080"/>
<rect x="3.9001435169333" y="0" width="0.011473628942107" height="0.27591684007163" style="fill:#000080"/>
<rect x="3.9116171458754" y="0" width="0.011473628942107" height="0.26949564421664" style="fill:#000080"/>
<rect x="3.9230907748175" y="0" width="0.011473628942107" height="0.27581954922534" style="fill:#000080"/>
<rect x="3.9345644037597" y="0" width="0.011473628942107" height="0.27426289568474" style="fill:#000080"/>
<rect x="3.9460380327018" y="0" width="0.011473628942107" height="0.27776536615109" style="fill:#000080"/>
<rect x="3.9575116616439" y="0" width="0.011473628942107" height="0.27231707875898" style="fill:#000080"/>
<rect x="3.968985290586" y="0" width="0.011473628942107" height="0.27825182038253" style="fill:#000080"/>
<rect x="3.9804589195281" y="0" width="0.011473628942107" height="0.27718162107336" style="fill:#000080"/>
<rect x="3.9919325484702" y="0" width="0.011473628942107" height="0.28661883316326" style="fill:#000080"/>
<rect x="4.0034061774123" y="0" width="0.011473628942107" height="0.2871052873947" style="fill:#000080"/>
<rect x="4.0148798063544" y="0" width="0.011473628942107" height="0.28292178100433" style="fill:#000080"/>
<rect x="4.0263534352965" y="0" width="0.011473628942107" height="0.26978751675551" style="fill:#000080"/>
<rect x="4.0378270642386" y="0" width="0.011473628942107" height="0.2761114217642" style="fill:#000080"/>
<rect x="4.0493006931807" y="0" width="0.011473628942107" height="0.27864098376768" style="fill:#000080"/>
<rect x="4.0607743221228" y="0" width="0.011473628942107" height="0.27504122245504" style="fill:#000080"/>
<rect x="4.0722479510649" y="0" width="0.011473628942107" height="0.27260895129785" style="fill:#000080"/>
<rect x="4.083721580007" y="0" width="0.011473628942107" height="0.27543038584019" style="fill:#000080"/>
<rect x="4.0951952089492" y="0" width="0.011473628942107" height="0.280781382386" style="fill:#000080"/>
<rect x="4.1066688378913" y="0" width="0.011473628942107" height="0.27883556546025" style="fill:#000080"/>
<rect x="4.1181424668334" y="0" width="0.011473628942107" height="0.28194887254146" style="fill:#000080"/>
<rect x="4.1296160957755" y="0" width="0.011473628942107" height="0.26628504628915" style="fill:#000080"/>
<rect x="4.1410897247176" y="0" width="0.011473628942107" height="0.27854369292139" style="fill:#000080"/>
<rect x="4.1525633536597" y="0" width="0.011473628942107" height="0.28360281692835" style="fill:#000080"/>
<rect x="4.1640369826018" y="0" width="0.011473628942107" height="0.27572225837905" style="fill:#000080"/>
<rect x="4.1755106115439" y="0" width="0.011473628942107" height="0.28262990846547" style="fill:#000080"/>
<rect x="4.186984240486" y="0" width="0.011473628942107" height="0.27007938929437" style="fill:#000080"/>
<rect x="4.1984578694281" y="0" width="0.011473628942107" height="0.27795994784366" style="fill:#000080"/>
<rect x="4.2099314983702" y="0" width="0.011473628942107" height="0.26463110190226" style="fill:#000080"/>
<rect x="4.2214051273123" y="0" width="0.011473628942107" height="0.27504122245504" style="fill:#000080"/>
<rect x="4.2328787562544" y="0" width="0.011473628942107" height="0.27260895129785" style="fill:#000080"/>
<rect x="4.2443523851965" y="0" width="0.011473628942107" height="0.27494393160875" style="fill:#000080"/>
<rect x="4.2558260141386" y="0" width="0.011473628942107" height="0.27562496753276" style="fill:#000080"/>
<rect x="4.2672996430808" y="0" width="0.011473628942107" height="0.28029492815457" style="fill:#000080"/>
<rect x="4.2787732720229" y="0" width="0.011473628942107" height="0.27581954922534" style="fill:#000080"/>
<rect x="4.290246900965" y="0" width="0.011473628942107" height="0.27037126183323" style="fill:#000080"/>
<rect x="4.3017205299071" y="0" width="0.011473628942107" height="0.2714414611424" style="fill:#000080"/>
<rect x="4.3131941588492" y="0" width="0.011473628942107" height="0.2674525364446" style="fill:#000080"/>
<rect x="4.3246677877913" y="0" width="0.011473628942107" height="0.26988480760179" style="fill:#000080"/>
<rect x="4.3361414167334" y="0" width="0.011473628942107" height="0.27776536615109" style="fill:#000080"/>
<rect x="4.3476150456755" y="0" width="0.011473628942107" height="0.27017668014066" style="fill:#000080"/>
<rect x="4.3590886746176" y="0" width="0.011473628942107" height="0.26579859205771" style="fill:#000080"/>
<rect x="4.3705623035597" y="0" width="0.011473628942107" height="0.26677150052059" style="fill:#000080"/>
<rect x="4.3820359325018" y="0" width="0.011473628942107" height="0.26774440898347" style="fill:#000080"/>
<rect x="4.3935095614439" y="0" width="0.011473628942107" height="0.26900918998521" style="fill:#000080"/>
<rect x="4.404983190386" y="0" width="0.011473628942107" height="0.26570130121143" style="fill:#000080"/>
<rect x="4.4164568193281" y="0" width="0.011473628942107" height="0.27406831399216" style="fill:#000080"/>
<rect x="4.4279304482703" y="0" width="0.011473628942107" height="0.26365819343939" style="fill:#000080"/>
<rect x="4.4394040772124" y="0" width="0.011473628942107" height="0.27319269637557" style="fill:#000080"/>
<rect x="4.4508777061545" y="0" width="0.011473628942107" height="0.26336632090052" style="fill:#000080"/>
<rect x="4.4623513350966" y="0" width="0.011473628942107" height="0.27046855267952" style="fill:#000080"/>
<rect x="4.4738249640387" y="0" width="0.011473628942107" height="0.2651175561337" style="fill:#000080"/>
<rect x="4.4852985929808" y="0" width="0.011473628942107" height="0.26920377167778" style="fill:#000080"/>
<rect x="4.4967722219229" y="0" width="0.011473628942107" height="0.26268528497651" style="fill:#000080"/>
<rect x="4.508245850865" y="0" width="0.011473628942107" height="0.26219883074507" style="fill:#000080"/>
<rect x="4.5197194798071" y="0" width="0.011473628942107" height="0.26229612159136" style="fill:#000080"/>
<rect x="4.5311931087492" y="0" width="0.011473628942107" height="0.2651175561337" style="fill:#000080"/>
<rect x="4.5426667376913" y="0" width="0.011473628942107" height="0.26424193851711" style="fill:#000080"/>
<rect x="4.5541403666334" y="0" width="0.011473628942107" height="0.25996114128046" style="fill:#000080"/>
<rect x="4.5656139955755" y="0" width="0.011473628942107" height="0.25743157927698" style="fill:#000080"/>
<rect x="4.5770876245176" y="0" width="0.011473628942107" height="0.25422098134949" style="fill:#000080"/>
<rect x="4.5885612534597" y="0" width="0.011473628942107" height="0.26297715751537" style="fill:#000080"/>
<rect x="4.6000348824019" y="0" width="0.011473628942107" height="0.24964831157397" style="fill:#000080"/>
<rect x="4.611508511344" y="0" width="0.011473628942107" height="0.25558305319752" style="fill:#000080"/>
<rect x="4.6229821402861" y="0" width="0.011473628942107" height="0.24848082141852" style="fill:#000080"/>
<rect x="4.6344557692282" y="0" width="0.011473628942107" height="0.2502320566517" style="fill:#000080"/>
<rect x="4.6459293981703" y="0" width="0.011473628942107" height="0.25285890950146" style="fill:#000080"/>
<rect x="4.6574030271124" y="0" width="0.011473628942107" height="0.24925914818882" style="fill:#000080"/>
<rect x="4.6688766560545" y="0" width="0.011473628942107" height="0.25957197789531" style="fill:#000080"/>
<rect x="4.6803502849966" y="0" width="0.011473628942107" height="0.24877269395739" style="fill:#000080"/>
<rect x="4.6918239139387" y="0" width="0.011473628942107" height="0.25198329188488" style="fill:#000080"/>
<rect x="4.7032975428808" y="0" width="0.011473628942107" height="0.24118400794695" style="fill:#000080"/>
<rect x="4.7147711718229" y="0" width="0.011473628942107" height="0.24916185734254" style="fill:#000080"/>
<rect x="4.726244800765" y="0" width="0.011473628942107" height="0.25013476580541" style="fill:#000080"/>
<rect x="4.7377184297071" y="0" width="0.011473628942107" height="0.23933548186749" style="fill:#000080"/>
<rect x="4.7491920586492" y="0" width="0.011473628942107" height="0.24371356995043" style="fill:#000080"/>
<rect x="4.7606656875914" y="0" width="0.011473628942107" height="0.24750791295565" style="fill:#000080"/>
<rect x="4.7721393165335" y="0" width="0.011473628942107" height="0.25003747495912" style="fill:#000080"/>
<rect x="4.7836129454756" y="0" width="0.011473628942107" height="0.24468647841331" style="fill:#000080"/>
<rect x="4.7950865744177" y="0" width="0.011473628942107" height="0.24750791295565" style="fill:#000080"/>
<rect x="4.8065602033598" y="0" width="0.011473628942107" height="0.25285890950146" style="fill:#000080"/>
<rect x="4.8180338323019" y="0" width="0.011473628942107" height="0.24663229533906" style="fill:#000080"/>
<rect x="4.829507461244" y="0" width="0.011473628942107" height="0.24848082141852" style="fill:#000080"/>
<rect x="4.8409810901861" y="0" width="0.011473628942107" height="0.24381086079672" style="fill:#000080"/>
<rect x="4.8524547191282" y="0" width="0.011473628942107" height="0.24215691640983" style="fill:#000080"/>
<rect x="4.8639283480703" y="0" width="0.011473628942107" height="0.23447093955311" style="fill:#000080"/>
<rect x="4.8754019770124" y="0" width="0.011473628942107" height="0.23991922694521" style="fill:#000080"/>
<rect x="4.8868756059545" y="0" width="0.011473628942107" height="0.22026647599512" style="fill:#000080"/>
<rect x="4.8983492348966" y="0" width="0.011473628942107" height="0.22999556062388" style="fill:#000080"/>
<rect x="4.9098228638387" y="0" width="0.011473628942107" height="0.23301157685879" style="fill:#000080"/>
<rect x="4.9212964927808" y="0" width="0.011473628942107" height="0.23184408670334" style="fill:#000080"/>
<rect x="4.932770121723" y="0" width="0.011473628942107" height="0.23758424663431" style="fill:#000080"/>
<rect x="4.9442437506651" y="0" width="0.011473628942107" height="0.21656942383619" style="fill:#000080"/>
<rect x="4.9557173796072" y="0" width="0.011473628942107" height="0.22931452469987" style="fill:#000080"/>
<rect x="4.9671910085493" y="0" width="0.011473628942107" height="0.229022652161" style="fill:#000080"/>
<rect x="4.9786646374914" y="0" width="0.011473628942107" height="0.21968273091739" style="fill:#000080"/>
<rect x="4.9901382664335" y="0" width="0.011473628942107" height="0.22804974369813" style="fill:#000080"/>
<rect x="5.0016118953756" y="0" width="0.011473628942107" height="0.21948814922482" style="fill:#000080"/>
<rect x="5.0130855243177" y="0" width="0.011473628942107" height="0.21958544007111" style="fill:#000080"/>
<rect x="5.0245591532598" y="0" width="0.011473628942107" height="0.2235743647689" style="fill:#000080"/>
<rect x="5.0360327822019" y="0" width="0.011473628942107" height="0.21734775060649" style="fill:#000080"/>
<rect x="5.047506411144" y="0" width="0.011473628942107" height="0.21734775060649" style="fill:#000080"/>
<rect x="5.0589800400861" y="0" width="0.011473628942107" height="0.21870982245452" style="fill:#000080"/>
<rect x="5.0704536690282" y="0" width="0.011473628942107" height="0.21005093713492" style="fill:#000080"/>
<rect x="5.0819272979703" y="0" width="0.011473628942107" height="0.221239384458" style="fill:#000080"/>
<rect x="5.0934009269125" y="0" width="0.011473628942107" height="0.22318520138375" style="fill:#000080"/>
<rect x="5.1048745558546" y="0" width="0.011473628942107" height="0.21238591744582" style="fill:#000080"/>
<rect x="5.1163481847967" y="0" width="0.011473628942107" height="0.21209404490696" style="fill:#000080"/>
<rect x="5.1278218137388" y="0" width="0.011473628942107" height="0.21637484214362" style="fill:#000080"/>
<rect x="5.1392954426809" y="0" width="0.011473628942107" height="0.20936990121091" style="fill:#000080"/>
<rect x="5.150769071623" y="0" width="0.011473628942107" height="0.21987731260997" style="fill:#000080"/>
<rect x="5.1622427005651" y="0" width="0.011473628942107" height="0.20411619551138" style="fill:#000080"/>
<rect x="5.1737163295072" y="0" width="0.011473628942107" height="0.20538097651312" style="fill:#000080"/>
<rect x="5.1851899584493" y="0" width="0.011473628942107" height="0.20693763005372" style="fill:#000080"/>
<rect x="5.1966635873914" y="0" width="0.011473628942107" height="0.20353245043365" style="fill:#000080"/>
<rect x="5.2081372163335" y="0" width="0.011473628942107" height="0.19779229050268" style="fill:#000080"/>
<rect x="5.2196108452756" y="0" width="0.011473628942107" height="0.20207308773934" style="fill:#000080"/>
<rect x="5.2310844742177" y="0" width="0.011473628942107" height="0.20596472159084" style="fill:#000080"/>
<rect x="5.2425581031598" y="0" width="0.011473628942107" height="0.2054782673594" style="fill:#000080"/>
<rect x="5.2540317321019" y="0" width="0.011473628942107" height="0.20411619551138" style="fill:#000080"/>
<rect x="5.2655053610441" y="0" width="0.011473628942107" height="0.19594376442322" style="fill:#000080"/>
<rect x="5.2769789899862" y="0" width="0.011473628942107" height="0.19360878411232" style="fill:#000080"/>
<rect x="5.2884526189283" y="0" width="0.011473628942107" height="0.19604105526951" style="fill:#000080"/>
<rect x="5.2999262478704" y="0" width="0.011473628942107" height="0.19827874473412" style="fill:#000080"/>
<rect x="5.3113998768125" y="0" width="0.011473628942107" height="0.1929277481883" style="fill:#000080"/>
<rect x="5.3228735057546" y="0" width="0.011473628942107" height="0.19730583627125" style="fill:#000080"/>
<rect x="5.3343471346967" y="0" width="0.011473628942107" height="0.18183659171152" style="fill:#000080"/>
<rect x="5.3458207636388" y="0" width="0.011473628942107" height="0.18757675164249" style="fill:#000080"/>
<rect x="5.3572943925809" y="0" width="0.011473628942107" height="0.18319866355955" style="fill:#000080"/>
<rect x="5.368768021523" y="0" width="0.011473628942107" height="0.18232304594296" style="fill:#000080"/>
<rect x="5.3802416504651" y="0" width="0.011473628942107" height="0.19156567634028" style="fill:#000080"/>
<rect x="5.3917152794072" y="0" width="0.011473628942107" height="0.18854966010536" style="fill:#000080"/>
<rect x="5.4031889083493" y="0" width="0.011473628942107" height="0.19156567634028" style="fill:#000080"/>
<rect x="5.4146625372914" y="0" width="0.011473628942107" height="0.18446344456128" style="fill:#000080"/>
<rect x="5.4261361662336" y="0" width="0.011473628942107" height="0.18504718963901" style="fill:#000080"/>
<rect x="5.4376097951757" y="0" width="0.011473628942107" height="0.18757675164249" style="fill:#000080"/>
<rect x="5.4490834241178" y="0" width="0.011473628942107" height="0.17638830431941" style="fill:#000080"/>
<rect x="5.4605570530599" y="0" width="0.011473628942107" height="0.18621467979446" style="fill:#000080"/>
<rect x="5.472030682002" y="0" width="0.011473628942107" height="0.19000902279968" style="fill:#000080"/>
<rect x="5.4835043109441" y="0" width="0.011473628942107" height="0.17444248739366" style="fill:#000080"/>
<rect x="5.4949779398862" y="0" width="0.011473628942107" height="0.18164201001894" style="fill:#000080"/>
<rect x="5.5064515688283" y="0" width="0.011473628942107" height="0.17911244801547" style="fill:#000080"/>
<rect x="5.5179251977704" y="0" width="0.011473628942107" height="0.17201021623647" style="fill:#000080"/>
<rect x="5.5293988267125" y="0" width="0.011473628942107" height="0.1835878269447" style="fill:#000080"/>
<rect x="5.5408724556546" y="0" width="0.011473628942107" height="0.17376145146965" style="fill:#000080"/>
<rect x="5.5523460845967" y="0" width="0.011473628942107" height="0.17123188946617" style="fill:#000080"/>
<rect x="5.5638197135388" y="0" width="0.011473628942107" height="0.17512352331767" style="fill:#000080"/>
<rect x="5.5752933424809" y="0" width="0.011473628942107" height="0.17171834369761" style="fill:#000080"/>
<rect x="5.586766971423" y="0" width="0.011473628942107" height="0.17697204939714" style="fill:#000080"/>
<rect x="5.5982406003652" y="0" width="0.011473628942107" height="0.17327499723821" style="fill:#000080"/>
<rect x="5.6097142293073" y="0" width="0.011473628942107" height="0.17191292539018" style="fill:#000080"/>
<rect x="5.6211878582494" y="0" width="0.011473628942107" height="0.1678267098461" style="fill:#000080"/>
<rect x="5.6326614871915" y="0" width="0.011473628942107" height="0.17152376200503" style="fill:#000080"/>
<rect x="5.6441351161336" y="0" width="0.011473628942107" height="0.16422694853346" style="fill:#000080"/>
<rect x="5.6556087450757" y="0" width="0.011473628942107" height="0.16714567392209" style="fill:#000080"/>
<rect x="5.6670823740178" y="0" width="0.011473628942107" height="0.16588089292035" style="fill:#000080"/>
<rect x="5.6785560029599" y="0" width="0.011473628942107" height="0.15615180829159" style="fill:#000080"/>
<rect x="5.690029631902" y="0" width="0.011473628942107" height="0.16714567392209" style="fill:#000080"/>
<rect x="5.7015032608441" y="0" width="0.011473628942107" height="0.16325404007059" style="fill:#000080"/>
<rect x="5.7129768897862" y="0" width="0.011473628942107" height="0.14924415820517" style="fill:#000080"/>
<rect x="5.7244505187283" y="0" width="0.011473628942107" height="0.15965427875795" style="fill:#000080"/>
<rect x="5.7359241476704" y="0" width="0.011473628942107" height="0.155276190675" style="fill:#000080"/>
<rect x="5.7473977766125" y="0" width="0.011473628942107" height="0.15303850121039" style="fill:#000080"/>
<rect x="5.7588714055547" y="0" width="0.011473628942107" height="0.15313579205668" style="fill:#000080"/>
<rect x="5.7703450344968" y="0" width="0.011473628942107" height="0.15673555336932" style="fill:#000080"/>
<rect x="5.7818186634389" y="0" width="0.011473628942107" height="0.15050893920691" style="fill:#000080"/>
<rect x="5.793292292381" y="0" width="0.011473628942107" height="0.15362224628812" style="fill:#000080"/>
<rect x="5.8047659213231" y="0" width="0.011473628942107" height="0.15157913851608" style="fill:#000080"/>
<rect x="5.8162395502652" y="0" width="0.011473628942107" height="0.14262838065762" style="fill:#000080"/>
<rect x="5.8277131792073" y="0" width="0.011473628942107" height="0.14457419758337" style="fill:#000080"/>
<rect x="5.8391868081494" y="0" width="0.011473628942107" height="0.1419473447336" style="fill:#000080"/>
<rect x="5.8506604370915" y="0" width="0.011473628942107" height="0.14652001450912" style="fill:#000080"/>
<rect x="5.8621340660336" y="0" width="0.011473628942107" height="0.14204463557989" style="fill:#000080"/>
<rect x="5.8736076949757" y="0" width="0.011473628942107" height="0.13786112918952" style="fill:#000080"/>
<rect x="5.8850813239178" y="0" width="0.011473628942107" height="0.14136359965588" style="fill:#000080"/>
<rect x="5.8965549528599" y="0" width="0.011473628942107" height="0.13932049188384" style="fill:#000080"/>
<rect x="5.908028581802" y="0" width="0.011473628942107" height="0.13747196580437" style="fill:#000080"/>
<rect x="5.9195022107441" y="0" width="0.011473628942107" height="0.14165547219474" style="fill:#000080"/>
<rect x="5.9309758396863" y="0" width="0.011473628942107" height="0.1341640770306" style="fill:#000080"/>
<rect x="5.9424494686284" y="0" width="0.011473628942107" height="0.13718009326551" style="fill:#000080"/>
<rect x="5.9539230975705" y="0" width="0.011473628942107" height="0.13718009326551" style="fill:#000080"/>
<rect x="5.9653967265126" y="0" width="0.011473628942107" height="0.13192638756598" style="fill:#000080"/>
<rect x="5.9768703554547" y="0" width="0.011473628942107" height="0.13659634818779" style="fill:#000080"/>
<rect x="5.9883439843968" y="0" width="0.011473628942107" height="0.13620718480264" style="fill:#000080"/>
<rect x="5.9998176133389" y="0" width="0.011473628942107" height="0.13610989395635" style="fill:#000080"/>
<rect x="6.011291242281" y="0" width="0.011473628942107" height="0.13309387772143" style="fill:#000080"/>
<rect x="6.0227648712231" y="0" width="0.011473628942107" height="0.12560248255729" style="fill:#000080"/>
<rect x="6.0342385001652" y="0" width="0.011473628942107" height="0.12900766217735" style="fill:#000080"/>
<rect x="6.0457121291073" y="0" width="0.011473628942107" height="0.1231702114001" style="fill:#000080"/>
<rect x="6.0571857580494" y="0" width="0.011473628942107" height="0.12920224386993" style="fill:#000080"/>
<rect x="6.0686593869915" y="0" width="0.011473628942107" height="0.11918128670231" style="fill:#000080"/>
<rect x="6.0801330159336" y="0" width="0.011473628942107" height="0.12774288117561" style="fill:#000080"/>
<rect x="6.0916066448758" y="0" width="0.011473628942107" height="0.11957045008746" style="fill:#000080"/>
<rect x="6.1030802738179" y="0" width="0.011473628942107" height="0.11976503178003" style="fill:#000080"/>
<rect x="6.11455390276" y="0" width="0.011473628942107" height="0.11859754162458" style="fill:#000080"/>
<rect x="6.1260275317021" y="0" width="0.011473628942107" height="0.12200272124465" style="fill:#000080"/>
<rect x="6.1375011606442" y="0" width="0.011473628942107" height="0.11840295993201" style="fill:#000080"/>
<rect x="6.1489747895863" y="0" width="0.011473628942107" height="0.11752734231542" style="fill:#000080"/>
<rect x="6.1604484185284" y="0" width="0.011473628942107" height="0.11937586839488" style="fill:#000080"/>
<rect x="6.1719220474705" y="0" width="0.011473628942107" height="0.11460861692679" style="fill:#000080"/>
<rect x="6.1833956764126" y="0" width="0.011473628942107" height="0.11363570846391" style="fill:#000080"/>
<rect x="6.1948693053547" y="0" width="0.011473628942107" height="0.11392758100278" style="fill:#000080"/>
<rect x="6.2063429342968" y="0" width="0.011473628942107" height="0.11052240138271" style="fill:#000080"/>
<rect x="6.2178165632389" y="0" width="0.011473628942107" height="0.11130072815301" style="fill:#000080"/>
<rect x="6.229290192181" y="0" width="0.011473628942107" height="0.11499778031194" style="fill:#000080"/>
<rect x="6.2407638211231" y="0" width="0.011473628942107" height="0.11285738169361" style="fill:#000080"/>
<rect x="6.2522374500653" y="0" width="0.011473628942107" height="0.10886845699582" style="fill:#000080"/>
<rect x="6.2637110790074" y="0" width="0.011473628942107" height="0.11402487184906" style="fill:#000080"/>
<rect x="6.2751847079495" y="0" width="0.011473628942107" height="0.11207905492331" style="fill:#000080"/>
<rect x="6.2866583368916" y="0" width="0.011473628942107" height="0.10556056822204" style="fill:#000080"/>
<rect x="6.2981319658337" y="0" width="0.011473628942107" height="0.11587339792853" style="fill:#000080"/>
<rect x="6.3096055947758" y="0" width="0.011473628942107" height="0.10633889499234" style="fill:#000080"/>
<rect x="6.3210792237179" y="0" width="0.011473628942107" height="0.10692264007007" style="fill:#000080"/>
<rect x="6.33255285266" y="0" width="0.011473628942107" height="0.10351746045" style="fill:#000080"/>
<rect x="6.3440264816021" y="0" width="0.011473628942107" height="0.10964678376612" style="fill:#000080"/>
<rect x="6.3555001105442" y="0" width="0.011473628942107" height="0.10234997029455" style="fill:#000080"/>
<rect x="6.3669737394863" y="0" width="0.011473628942107" height="0.097290846287597" style="fill:#000080"/>
<rect x="6.3784473684284" y="0" width="0.011473628942107" height="0.098166463904185" style="fill:#000080"/>
<rect x="6.3899209973705" y="0" width="0.011473628942107" height="0.096415228671009" style="fill:#000080"/>
<rect x="6.4013946263126" y="0" width="0.011473628942107" height="0.10400391468144" style="fill:#000080"/>
<rect x="6.4128682552547" y="0" width="0.011473628942107" height="0.098847499828199" style="fill:#000080"/>
<rect x="6.4243418841969" y="0" width="0.011473628942107" height="0.095442320208133" style="fill:#000080"/>
<rect x="6.435815513139" y="0" width="0.011473628942107" height="0.095053156822982" style="fill:#000080"/>
<rect x="6.4472891420811" y="0" width="0.011473628942107" height="0.096707101209871" style="fill:#000080"/>
<rect x="6.4587627710232" y="0" width="0.011473628942107" height="0.093204630743518" style="fill:#000080"/>
<rect x="6.4702363999653" y="0" width="0.011473628942107" height="0.091453395510341" style="fill:#000080"/>
<rect x="6.4817100289074" y="0" width="0.011473628942107" height="0.095831483593283" style="fill:#000080"/>
<rect x="6.4931836578495" y="0" width="0.011473628942107" height="0.092134431434354" style="fill:#000080"/>
<rect x="6.5046572867916" y="0" width="0.011473628942107" height="0.093593794128668" style="fill:#000080"/>
<rect x="6.5161309157337" y="0" width="0.011473628942107" height="0.092134431434354" style="fill:#000080"/>
<rect x="6.5276045446758" y="0" width="0.011473628942107" height="0.088631960968001" style="fill:#000080"/>
<rect x="6.5390781736179" y="0" width="0.011473628942107" height="0.086783434888537" style="fill:#000080"/>
<rect x="6.55055180256" y="0" width="0.011473628942107" height="0.083572836961046" style="fill:#000080"/>
<rect x="6.5620254315021" y="0" width="0.011473628942107" height="0.086199689810811" style="fill:#000080"/>
<rect x="6.5734990604442" y="0" width="0.011473628942107" height="0.088340088429138" style="fill:#000080"/>
<rect x="6.5849726893864" y="0" width="0.011473628942107" height="0.083378255268471" style="fill:#000080"/>
<rect x="6.5964463183285" y="0" width="0.011473628942107" height="0.087659052505125" style="fill:#000080"/>
<rect x="6.6079199472706" y="0" width="0.011473628942107" height="0.084351163731347" style="fill:#000080"/>
<rect x="6.6193935762127" y="0" width="0.011473628942107" height="0.083767418653621" style="fill:#000080"/>
<rect x="6.6308672051548" y="0" width="0.011473628942107" height="0.083183673575895" style="fill:#000080"/>
<rect x="6.6423408340969" y="0" width="0.011473628942107" height="0.086102398964523" style="fill:#000080"/>
<rect x="6.653814463039" y="0" width="0.011473628942107" height="0.084545745423922" style="fill:#000080"/>
<rect x="6.6652880919811" y="0" width="0.011473628942107" height="0.080848693264993" style="fill:#000080"/>
<rect x="6.6767617209232" y="0" width="0.011473628942107" height="0.078805585492954" style="fill:#000080"/>
<rect x="6.6882353498653" y="0" width="0.011473628942107" height="0.081043274957568" style="fill:#000080"/>
<rect x="6.6997089788074" y="0" width="0.011473628942107" height="0.075011242487737" style="fill:#000080"/>
<rect x="6.7111826077495" y="0" width="0.011473628942107" height="0.073941043178574" style="fill:#000080"/>
<rect x="6.7226562366916" y="0" width="0.011473628942107" height="0.07773538618379" style="fill:#000080"/>
<rect x="6.7341298656337" y="0" width="0.011473628942107" height="0.076373314335764" style="fill:#000080"/>
<rect x="6.7456034945758" y="0" width="0.011473628942107" height="0.072968134715698" style="fill:#000080"/>
<rect x="6.757077123518" y="0" width="0.011473628942107" height="0.073357298100848" style="fill:#000080"/>
<rect x="6.7685507524601" y="0" width="0.011473628942107" height="0.075400405872888" style="fill:#000080"/>
<rect x="6.7800243814022" y="0" width="0.011473628942107" height="0.077540804491215" style="fill:#000080"/>
<rect x="6.7914980103443" y="0" width="0.011473628942107" height="0.069562955095632" style="fill:#000080"/>
<rect x="6.8029716392864" y="0" width="0.011473628942107" height="0.071508772021384" style="fill:#000080"/>
<rect x="6.8144452682285" y="0" width="0.011473628942107" height="0.070535863558508" style="fill:#000080"/>
<rect x="6.8259188971706" y="0" width="0.011473628942107" height="0.075108533334025" style="fill:#000080"/>
<rect x="6.8373925261127" y="0" width="0.011473628942107" height="0.070730445251083" style="fill:#000080"/>
<rect x="6.8488661550548" y="0" width="0.011473628942107" height="0.070633154404795" style="fill:#000080"/>
<rect x="6.8603397839969" y="0" width="0.011473628942107" height="0.070827736097371" style="fill:#000080"/>
<rect x="6.871813412939" y="0" width="0.011473628942107" height="0.068590046632756" style="fill:#000080"/>
<rect x="6.8832870418811" y="0" width="0.011473628942107" height="0.070535863558508" style="fill:#000080"/>
<rect x="6.8947606708232" y="0" width="0.011473628942107" height="0.064698412781252" style="fill:#000080"/>
<rect x="6.9062342997653" y="0" width="0.011473628942107" height="0.064211958549814" style="fill:#000080"/>
<rect x="6.9177079287075" y="0" width="0.011473628942107" height="0.065282157858978" style="fill:#000080"/>
<rect x="6.9291815576496" y="0" width="0.011473628942107" height="0.067519847323592" style="fill:#000080"/>
<rect x="6.9406551865917" y="0" width="0.011473628942107" height="0.062655305009212" style="fill:#000080"/>
<rect x="6.9521288155338" y="0" width="0.011473628942107" height="0.061001360622323" style="fill:#000080"/>
<rect x="6.9636024444759" y="0" width="0.011473628942107" height="0.059833870466872" style="fill:#000080"/>
<rect x="6.975076073418" y="0" width="0.011473628942107" height="0.061001360622323" style="fill:#000080"/>
<rect x="6.9865497023601" y="0" width="0.011473628942107" height="0.061195942314898" style="fill:#000080"/>
<rect x="6.9980233313022" y="0" width="0.011473628942107" height="0.058763671157709" style="fill:#000080"/>
<rect x="7.0094969602443" y="0" width="0.011473628942107" height="0.060125743005735" style="fill:#000080"/>
<rect x="7.0209705891864" y="0" width="0.011473628942107" height="0.060223033852023" style="fill:#000080"/>
<rect x="7.0324442181285" y="0" width="0.011473628942107" height="0.059055543696571" style="fill:#000080"/>
<rect x="7.0439178470706" y="0" width="0.011473628942107" height="0.059639288774297" style="fill:#000080"/>
<rect x="7.0553914760127" y="0" width="0.011473628942107" height="0.060125743005735" style="fill:#000080"/>
<rect x="7.0668651049548" y="0" width="0.011473628942107" height="0.056428690846806" style="fill:#000080"/>
<rect x="7.0783387338969" y="0" width="0.011473628942107" height="0.058666380311421" style="fill:#000080"/>
<rect x="7.0898123628391" y="0" width="0.011473628942107" height="0.059833870466872" style="fill:#000080"/>
<rect x="7.1012859917812" y="0" width="0.011473628942107" height="0.05302351122674" style="fill:#000080"/>
<rect x="7.1127596207233" y="0" width="0.011473628942107" height="0.054580164767342" style="fill:#000080"/>
<rect x="7.1242332496654" y="0" width="0.011473628942107" height="0.052731638687878" style="fill:#000080"/>
<rect x="7.1357068786075" y="0" width="0.011473628942107" height="0.053801837997041" style="fill:#000080"/>
<rect x="7.1471805075496" y="0" width="0.011473628942107" height="0.054774746459917" style="fill:#000080"/>
<rect x="7.1586541364917" y="0" width="0.011473628942107" height="0.057693471848545" style="fill:#000080"/>
<rect x="7.1701277654338" y="0" width="0.011473628942107" height="0.050104785838112" style="fill:#000080"/>
<rect x="7.1816013943759" y="0" width="0.011473628942107" height="0.053996419689616" style="fill:#000080"/>
<rect x="7.193075023318" y="0" width="0.011473628942107" height="0.046505024525471" style="fill:#000080"/>
<rect x="7.2045486522601" y="0" width="0.011473628942107" height="0.051077694300988" style="fill:#000080"/>
<rect x="7.2160222812022" y="0" width="0.011473628942107" height="0.054093710535904" style="fill:#000080"/>
<rect x="7.2274959101443" y="0" width="0.011473628942107" height="0.05059124006955" style="fill:#000080"/>
<rect x="7.2389695390864" y="0" width="0.011473628942107" height="0.048548132297511" style="fill:#000080"/>
<rect x="7.2504431680286" y="0" width="0.011473628942107" height="0.04981291329925" style="fill:#000080"/>
<rect x="7.2619167969707" y="0" width="0.011473628942107" height="0.048548132297511" style="fill:#000080"/>
<rect x="7.2733904259128" y="0" width="0.011473628942107" height="0.049034586528949" style="fill:#000080"/>
<rect x="7.2848640548549" y="0" width="0.011473628942107" height="0.044656498446007" style="fill:#000080"/>
<rect x="7.296337683797" y="0" width="0.011473628942107" height="0.044267335060857" style="fill:#000080"/>
<rect x="7.3078113127391" y="0" width="0.011473628942107" height="0.044656498446007" style="fill:#000080"/>
<rect x="7.3192849416812" y="0" width="0.011473628942107" height="0.043586299136843" style="fill:#000080"/>
<rect x="7.3307585706233" y="0" width="0.011473628942107" height="0.043975462521994" style="fill:#000080"/>
<rect x="7.3422321995654" y="0" width="0.011473628942107" height="0.046115861140321" style="fill:#000080"/>
<rect x="7.3537058285075" y="0" width="0.011473628942107" height="0.043975462521994" style="fill:#000080"/>
<rect x="7.3651794574496" y="0" width="0.011473628942107" height="0.046699606218047" style="fill:#000080"/>
<rect x="7.3766530863917" y="0" width="0.011473628942107" height="0.041835063903667" style="fill:#000080"/>
<rect x="7.3881267153338" y="0" width="0.011473628942107" height="0.03804072089845" style="fill:#000080"/>
<rect x="7.3996003442759" y="0" width="0.011473628942107" height="0.044170044214569" style="fill:#000080"/>
<rect x="7.411073973218" y="0" width="0.011473628942107" height="0.040570282901928" style="fill:#000080"/>
<rect x="7.4225476021602" y="0" width="0.011473628942107" height="0.038624465976176" style="fill:#000080"/>
<rect x="7.4340212311023" y="0" width="0.011473628942107" height="0.039208211053902" style="fill:#000080"/>
<rect x="7.4454948600444" y="0" width="0.011473628942107" height="0.043099844905405" style="fill:#000080"/>
<rect x="7.4569684889865" y="0" width="0.011473628942107" height="0.041835063903667" style="fill:#000080"/>
<rect x="7.4684421179286" y="0" width="0.011473628942107" height="0.039889246977915" style="fill:#000080"/>
<rect x="7.4799157468707" y="0" width="0.011473628942107" height="0.038332593437313" style="fill:#000080"/>
<rect x="7.4913893758128" y="0" width="0.011473628942107" height="0.039500083592764" style="fill:#000080"/>
<rect x="7.5028630047549" y="0" width="0.011473628942107" height="0.040375701209353" style="fill:#000080"/>
<rect x="7.514336633697" y="0" width="0.011473628942107" height="0.039500083592764" style="fill:#000080"/>
<rect x="7.5258102626391" y="0" width="0.011473628942107" height="0.038624465976176" style="fill:#000080"/>
<rect x="7.5372838915812" y="0" width="0.011473628942107" height="0.039110920207614" style="fill:#000080"/>
<rect x="7.5487575205233" y="0" width="0.011473628942107" height="0.038332593437313" style="fill:#000080"/>
<rect x="7.5602311494654" y="0" width="0.011473628942107" height="0.038721756822464" style="fill:#000080"/>
<rect x="7.5717047784075" y="0" width="0.011473628942107" height="0.035997613126411" style="fill:#000080"/>
<rect x="7.5831784073497" y="0" width="0.011473628942107" height="0.035900322280123" style="fill:#000080"/>
<rect x="7.5946520362918" y="0" width="0.011473628942107" height="0.036581358204136" style="fill:#000080"/>
<rect x="7.6061256652339" y="0" width="0.011473628942107" height="0.03521928635611" style="fill:#000080"/>
<rect x="7.617599294176" y="0" width="0.011473628942107" height="0.037359684974437" style="fill:#000080"/>
<rect x="7.6290729231181" y="0" width="0.011473628942107" height="0.033078887737783" style="fill:#000080"/>
<rect x="7.6405465520602" y="0" width="0.011473628942107" height="0.032105979274907" style="fill:#000080"/>
<rect x="7.6520201810023" y="0" width="0.011473628942107" height="0.032300560967482" style="fill:#000080"/>
<rect x="7.6634938099444" y="0" width="0.011473628942107" height="0.035024704663535" style="fill:#000080"/>
<rect x="7.6749674388865" y="0" width="0.011473628942107" height="0.034246377893234" style="fill:#000080"/>
<rect x="7.6864410678286" y="0" width="0.011473628942107" height="0.036678649050424" style="fill:#000080"/>
<rect x="7.6979146967707" y="0" width="0.011473628942107" height="0.029770998964005" style="fill:#000080"/>
<rect x="7.7093883257128" y="0" width="0.011473628942107" height="0.030549325734305" style="fill:#000080"/>
<rect x="7.7208619546549" y="0" width="0.011473628942107" height="0.029770998964005" style="fill:#000080"/>
<rect x="7.732335583597" y="0" width="0.011473628942107" height="0.031716815889757" style="fill:#000080"/>
<rect x="7.7438092125391" y="0" width="0.011473628942107" height="0.030452034888018" style="fill:#000080"/>
<rect x="7.7552828414813" y="0" width="0.011473628942107" height="0.028895381347416" style="fill:#000080"/>
<rect x="7.7667564704234" y="0" width="0.011473628942107" height="0.030452034888018" style="fill:#000080"/>
<rect x="7.7782300993655" y="0" width="0.011473628942107" height="0.028603508808554" style="fill:#000080"/>
<rect x="7.7897037283076" y="0" width="0.011473628942107" height="0.030257453195443" style="fill:#000080"/>
<rect x="7.8011773572497" y="0" width="0.011473628942107" height="0.027338727806815" style="fill:#000080"/>
<rect x="7.8126509861918" y="0" width="0.011473628942107" height="0.028895381347416" style="fill:#000080"/>
<rect x="7.8241246151339" y="0" width="0.011473628942107" height="0.031522234197181" style="fill:#000080"/>
<rect x="7.835598244076" y="0" width="0.011473628942107" height="0.028019763730828" style="fill:#000080"/>
<rect x="7.8470718730181" y="0" width="0.011473628942107" height="0.033078887737783" style="fill:#000080"/>
<rect x="7.8585455019602" y="0" width="0.011473628942107" height="0.028214345423403" style="fill:#000080"/>
<rect x="7.8700191309023" y="0" width="0.011473628942107" height="0.029089963039991" style="fill:#000080"/>
<rect x="7.8814927598444" y="0" width="0.011473628942107" height="0.022960639723873" style="fill:#000080"/>
<rect x="7.8929663887865" y="0" width="0.011473628942107" height="0.027436018653102" style="fill:#000080"/>
<rect x="7.9044400177286" y="0" width="0.011473628942107" height="0.026754982729089" style="fill:#000080"/>
<rect x="7.9159136466708" y="0" width="0.011473628942107" height="0.025879365112501" style="fill:#000080"/>
<rect x="7.9273872756129" y="0" width="0.011473628942107" height="0.023738966494174" style="fill:#000080"/>
<rect x="7.938860904555" y="0" width="0.011473628942107" height="0.025295620034775" style="fill:#000080"/>
<rect x="7.9503345334971" y="0" width="0.011473628942107" height="0.023252512262736" style="fill:#000080"/>
<rect x="7.9618081624392" y="0" width="0.011473628942107" height="0.022766058031298" style="fill:#000080"/>
<rect x="7.9732817913813" y="0" width="0.011473628942107" height="0.024420002418187" style="fill:#000080"/>
<rect x="7.9847554203234" y="0" width="0.011473628942107" height="0.02549020172735" style="fill:#000080"/>
<rect x="7.9962290492655" y="0" width="0.011473628942107" height="0.021209404490696" style="fill:#000080"/>
<rect x="8.0077026782076" y="0" width="0.011473628942107" height="0.023447093955311" style="fill:#000080"/>
<rect x="8.0191763071497" y="0" width="0.011473628942107" height="0.024614584110762" style="fill:#000080"/>
<rect x="8.0306499360918" y="0" width="0.011473628942107" height="0.02227960379986" style="fill:#000080"/>
<rect x="8.0421235650339" y="0" width="0.011473628942107" height="0.025295620034775" style="fill:#000080"/>
<rect x="8.053597193976" y="0" width="0.011473628942107" height="0.022863348877585" style="fill:#000080"/>
<rect x="8.0650708229181" y="0" width="0.011473628942107" height="0.025198329188488" style="fill:#000080"/>
<rect x="8.0765444518602" y="0" width="0.011473628942107" height="0.022766058031298" style="fill:#000080"/>
<rect x="8.0880180808023" y="0" width="0.011473628942107" height="0.020625659412971" style="fill:#000080"/>
<rect x="8.0994917097445" y="0" width="0.011473628942107" height="0.02023649602782" style="fill:#000080"/>
<rect x="8.1109653386866" y="0" width="0.011473628942107" height="0.023155221416448" style="fill:#000080"/>
<rect x="8.1224389676287" y="0" width="0.011473628942107" height="0.019069005872369" style="fill:#000080"/>
<rect x="8.1339125965708" y="0" width="0.011473628942107" height="0.021209404490696" style="fill:#000080"/>
<rect x="8.1453862255129" y="0" width="0.011473628942107" height="0.021209404490696" style="fill:#000080"/>
<rect x="8.156859854455" y="0" width="0.011473628942107" height="0.019944623488957" style="fill:#000080"/>
<rect x="8.1683334833971" y="0" width="0.011473628942107" height="0.02023649602782" style="fill:#000080"/>
<rect x="8.1798071123392" y="0" width="0.011473628942107" height="0.019555460103807" style="fill:#000080"/>
<rect x="8.1912807412813" y="0" width="0.011473628942107" height="0.018485260794643" style="fill:#000080"/>
<rect x="8.2027543702234" y="0" width="0.011473628942107" height="0.02305793057016" style="fill:#000080"/>
<rect x="8.2142279991655" y="0" width="0.011473628942107" height="0.019555460103807" style="fill:#000080"/>
<rect x="8.2257016281076" y="0" width="0.011473628942107" height="0.022376894646147" style="fill:#000080"/>
<rect x="8.2371752570497" y="0" width="0.011473628942107" height="0.018582551640931" style="fill:#000080"/>
<rect x="8.2486488859918" y="0" width="0.011473628942107" height="0.019360878411232" style="fill:#000080"/>
<rect x="8.2601225149339" y="0" width="0.011473628942107" height="0.01780422487063" style="fill:#000080"/>
<rect x="8.271596143876" y="0" width="0.011473628942107" height="0.018387969948356" style="fill:#000080"/>
<rect x="8.2830697728182" y="0" width="0.011473628942107" height="0.019069005872369" style="fill:#000080"/>
<rect x="8.2945434017603" y="0" width="0.011473628942107" height="0.01741506148548" style="fill:#000080"/>
<rect x="8.3060170307024" y="0" width="0.011473628942107" height="0.01984733264267" style="fill:#000080"/>
<rect x="8.3174906596445" y="0" width="0.011473628942107" height="0.015274662867153" style="fill:#000080"/>
<rect x="8.3289642885866" y="0" width="0.011473628942107" height="0.017706934024343" style="fill:#000080"/>
<rect x="8.3404379175287" y="0" width="0.011473628942107" height="0.016052989637453" style="fill:#000080"/>
<rect x="8.3519115464708" y="0" width="0.011473628942107" height="0.017998806563205" style="fill:#000080"/>
<rect x="8.3633851754129" y="0" width="0.011473628942107" height="0.016150280483741" style="fill:#000080"/>
<rect x="8.374858804355" y="0" width="0.011473628942107" height="0.016636734715179" style="fill:#000080"/>
<rect x="8.3863324332971" y="0" width="0.011473628942107" height="0.016247571330029" style="fill:#000080"/>
<rect x="8.3978060622392" y="0" width="0.011473628942107" height="0.01537195371344" style="fill:#000080"/>
<rect x="8.4092796911813" y="0" width="0.011473628942107" height="0.01741506148548" style="fill:#000080"/>
<rect x="8.4207533201234" y="0" width="0.011473628942107" height="0.017025898100329" style="fill:#000080"/>
<rect x="8.4322269490655" y="0" width="0.011473628942107" height="0.01459362694314" style="fill:#000080"/>
<rect x="8.4437005780076" y="0" width="0.011473628942107" height="0.013718009326551" style="fill:#000080"/>
<rect x="8.4551742069497" y="0" width="0.011473628942107" height="0.016052989637453" style="fill:#000080"/>
<rect x="8.4666478358918" y="0" width="0.011473628942107" height="0.016344862176316" style="fill:#000080"/>
<rect x="8.478121464834" y="0" width="0.011473628942107" height="0.016150280483741" style="fill:#000080"/>
<rect x="8.4895950937761" y="0" width="0.011473628942107" height="0.014009881865414" style="fill:#000080"/>
<rect x="8.5010687227182" y="0" width="0.011473628942107" height="0.014399045250564" style="fill:#000080"/>
<rect x="8.5125423516603" y="0" width="0.011473628942107" height="0.013718009326551" style="fill:#000080"/>
<rect x="8.5240159806024" y="0" width="0.011473628942107" height="0.014009881865414" style="fill:#000080"/>
<rect x="8.5354896095445" y="0" width="0.011473628942107" height="0.013815300172839" style="fill:#000080"/>
<rect x="8.5469632384866" y="0" width="0.011473628942107" height="0.015177372020865" style="fill:#000080"/>
<rect x="8.5584368674287" y="0" width="0.011473628942107" height="0.01459362694314" style="fill:#000080"/>
<rect x="8.5699104963708" y="0" width="0.011473628942107" height="0.0125505191711" style="fill:#000080"/>
<rect x="8.5813841253129" y="0" width="0.011473628942107" height="0.011966774093374" style="fill:#000080"/>
<rect x="8.592857754255" y="0" width="0.011473628942107" height="0.014496336096852" style="fill:#000080"/>
<rect x="8.6043313831971" y="0" width="0.011473628942107" height="0.01293968255625" style="fill:#000080"/>
<rect x="8.6158050121392" y="0" width="0.011473628942107" height="0.011966774093374" style="fill:#000080"/>
<rect x="8.6272786410813" y="0" width="0.011473628942107" height="0.013328845941401" style="fill:#000080"/>
<rect x="8.6387522700234" y="0" width="0.011473628942107" height="0.011577610708224" style="fill:#000080"/>
<rect x="8.6502258989655" y="0" width="0.011473628942107" height="0.01293968255625" style="fill:#000080"/>
<rect x="8.6616995279076" y="0" width="0.011473628942107" height="0.014009881865414" style="fill:#000080"/>
<rect x="8.6731731568498" y="0" width="0.011473628942107" height="0.01216135578595" style="fill:#000080"/>
<rect x="8.6846467857919" y="0" width="0.011473628942107" height="0.011285738169361" style="fill:#000080"/>
<rect x="8.696120414734" y="0" width="0.011473628942107" height="0.011091156476786" style="fill:#000080"/>
<rect x="8.7075940436761" y="0" width="0.011473628942107" height="0.010410120552773" style="fill:#000080"/>
<rect x="8.7190676726182" y="0" width="0.011473628942107" height="0.012258646632237" style="fill:#000080"/>
<rect x="8.7305413015603" y="0" width="0.011473628942107" height="0.011188447323074" style="fill:#000080"/>
<rect x="8.7420149305024" y="0" width="0.011473628942107" height="0.012064064939662" style="fill:#000080"/>
<rect x="8.7534885594445" y="0" width="0.011473628942107" height="0.0096317937824721" style="fill:#000080"/>
<rect x="8.7649621883866" y="0" width="0.011473628942107" height="0.010993865630498" style="fill:#000080"/>
<rect x="8.7764358173287" y="0" width="0.011473628942107" height="0.010410120552773" style="fill:#000080"/>
<rect x="8.7879094462708" y="0" width="0.011473628942107" height="0.0096317937824721" style="fill:#000080"/>
<rect x="8.7993830752129" y="0" width="0.011473628942107" height="0.010799283937923" style="fill:#000080"/>
<rect x="8.810856704155" y="0" width="0.011473628942107" height="0.010215538860198" style="fill:#000080"/>
<rect x="8.8223303330971" y="0" width="0.011473628942107" height="0.010799283937923" style="fill:#000080"/>
<rect x="8.8338039620392" y="0" width="0.011473628942107" height="0.01050741139906" style="fill:#000080"/>
<rect x="8.8452775909813" y="0" width="0.011473628942107" height="0.010020957167622" style="fill:#000080"/>
<rect x="8.8567512199235" y="0" width="0.011473628942107" height="0.0090480487047465" style="fill:#000080"/>
<rect x="8.8682248488656" y="0" width="0.011473628942107" height="0.0099236663213349" style="fill:#000080"/>
<rect x="8.8796984778077" y="0" width="0.011473628942107" height="0.0075886860104326" style="fill:#000080"/>
<rect x="8.8911721067498" y="0" width="0.011473628942107" height="0.0093399212436093" style="fill:#000080"/>
<rect x="8.9026457356919" y="0" width="0.011473628942107" height="0.0078805585492954" style="fill:#000080"/>
<rect x="8.914119364634" y="0" width="0.011473628942107" height="0.0078805585492954" style="fill:#000080"/>
<rect x="8.9255929935761" y="0" width="0.011473628942107" height="0.0089507578584589" style="fill:#000080"/>
<rect x="8.9370666225182" y="0" width="0.011473628942107" height="0.0095345029361845" style="fill:#000080"/>
<rect x="8.9485402514603" y="0" width="0.011473628942107" height="0.0071022317789946" style="fill:#000080"/>
<rect x="8.9600138804024" y="0" width="0.011473628942107" height="0.0069076500864194" style="fill:#000080"/>
<rect x="8.9714875093445" y="0" width="0.011473628942107" height="0.0081724310881581" style="fill:#000080"/>
<rect x="8.9829611382866" y="0" width="0.011473628942107" height="0.0087561761658837" style="fill:#000080"/>
<rect x="8.9944347672287" y="0" width="0.011473628942107" height="0.0091453395510341" style="fill:#000080"/>
<rect x="9.0059083961708" y="0" width="0.011473628942107" height="0.007491395164145" style="fill:#000080"/>
<rect x="9.0173820251129" y="0" width="0.011473628942107" height="0.0095345029361845" style="fill:#000080"/>
<rect x="9.028855654055" y="0" width="0.011473628942107" height="0.0083670127807333" style="fill:#000080"/>
<rect x="9.0403292829971" y="0" width="0.011473628942107" height="0.007004940932707" style="fill:#000080"/>
<rect x="9.0518029119393" y="0" width="0.011473628942107" height="0.0076859768567202" style="fill:#000080"/>
<rect x="9.0632765408814" y="0" width="0.011473628942107" height="0.0071995226252822" style="fill:#000080"/>
<rect x="9.0747501698235" y="0" width="0.011473628942107" height="0.0081724310881581" style="fill:#000080"/>
<rect x="9.0862237987656" y="0" width="0.011473628942107" height="0.0067130683938442" style="fill:#000080"/>
<rect x="9.0976974277077" y="0" width="0.011473628942107" height="0.007004940932707" style="fill:#000080"/>
<rect x="9.1091710566498" y="0" width="0.011473628942107" height="0.007004940932707" style="fill:#000080"/>
<rect x="9.1206446855919" y="0" width="0.011473628942107" height="0.007491395164145" style="fill:#000080"/>
<rect x="9.132118314534" y="0" width="0.011473628942107" height="0.007491395164145" style="fill:#000080"/>
<rect x="9.1435919434761" y="0" width="0.011473628942107" height="0.0063239050086938" style="fill:#000080"/>
<rect x="9.1550655724182" y="0" width="0.011473628942107" height="0.0058374507772558" style="fill:#000080"/>
<rect x="9.1665392013603" y="0" width="0.011473628942107" height="0.0062266141624062" style="fill:#000080"/>
<rect x="9.1780128303024" y="0" width="0.011473628942107" height="0.007004940932707" style="fill:#000080"/>
<rect x="9.1894864592445" y="0" width="0.011473628942107" height="0.0057401599309682" style="fill:#000080"/>
<rect x="9.2009600881866" y="0" width="0.011473628942107" height="0.0071995226252822" style="fill:#000080"/>
<rect x="9.2124337171287" y="0" width="0.011473628942107" height="0.0068103592401318" style="fill:#000080"/>
<rect x="9.2239073460708" y="0" width="0.011473628942107" height="0.0073941043178574" style="fill:#000080"/>
<rect x="9.2353809750129" y="0" width="0.011473628942107" height="0.0064211958549814" style="fill:#000080"/>
<rect x="9.2468546039551" y="0" width="0.011473628942107" height="0.006518486701269" style="fill:#000080"/>
<rect x="9.2583282328972" y="0" width="0.011473628942107" height="0.0054482873921054" style="fill:#000080"/>
<rect x="9.2698018618393" y="0" width="0.011473628942107" height="0.0058374507772558" style="fill:#000080"/>
<rect x="9.2812754907814" y="0" width="0.011473628942107" height="0.0057401599309682" style="fill:#000080"/>
<rect x="9.2927491197235" y="0" width="0.011473628942107" height="0.0053509965458178" style="fill:#000080"/>
<rect x="9.3042227486656" y="0" width="0.011473628942107" height="0.0066157775475566" style="fill:#000080"/>
<rect x="9.3156963776077" y="0" width="0.011473628942107" height="0.0052537056995302" style="fill:#000080"/>
<rect x="9.3271700065498" y="0" width="0.011473628942107" height="0.0061293233161186" style="fill:#000080"/>
<rect x="9.3386436354919" y="0" width="0.011473628942107" height="0.0059347416235434" style="fill:#000080"/>
<rect x="9.350117264434" y="0" width="0.011473628942107" height="0.0069076500864194" style="fill:#000080"/>
<rect x="9.3615908933761" y="0" width="0.011473628942107" height="0.005059124006955" style="fill:#000080"/>
<rect x="9.3730645223182" y="0" width="0.011473628942107" height="0.0062266141624062" style="fill:#000080"/>
<rect x="9.3845381512603" y="0" width="0.011473628942107" height="0.0048645423143798" style="fill:#000080"/>
<rect x="9.3960117802024" y="0" width="0.011473628942107" height="0.0049618331606674" style="fill:#000080"/>
<rect x="9.4074854091445" y="0" width="0.011473628942107" height="0.0048645423143798" style="fill:#000080"/>
<rect x="9.4189590380866" y="0" width="0.011473628942107" height="0.0056428690846806" style="fill:#000080"/>
<rect x="9.4304326670288" y="0" width="0.011473628942107" height="0.0057401599309682" style="fill:#000080"/>
<rect x="9.4419062959709" y="0" width="0.011473628942107" height="0.0052537056995302" style="fill:#000080"/>
<rect x="9.453379924913" y="0" width="0.011473628942107" height="0.0045726697755171" style="fill:#000080"/>
<rect x="9.4648535538551" y="0" width="0.011473628942107" height="0.0047672514680923" style="fill:#000080"/>
<rect x="9.4763271827972" y="0" width="0.011473628942107" height="0.0046699606218047" style="fill:#000080"/>
<rect x="9.4878008117393" y="0" width="0.011473628942107" height="0.0042807972366543" style="fill:#000080"/>
<rect x="9.4992744406814" y="0" width="0.011473628942107" height="0.0057401599309682" style="fill:#000080"/>
<rect x="9.5107480696235" y="0" width="0.011473628942107" height="0.0042807972366543" style="fill:#000080"/>
<rect x="9.5222216985656" y="0" width="0.011473628942107" height="0.0045726697755171" style="fill:#000080"/>
<rect x="9.5336953275077" y="0" width="0.011473628942107" height="0.0042807972366543" style="fill:#000080"/>
<rect x="9.5451689564498" y="0" width="0.011473628942107" height="0.0042807972366543" style="fill:#000080"/>
<rect x="9.5566425853919" y="0" width="0.011473628942107" height="0.0040862155440791" style="fill:#000080"/>
<rect x="9.568116214334" y="0" width="0.011473628942107" height="0.0051564148532426" style="fill:#000080"/>
<rect x="9.5795898432761" y="0" width="0.011473628942107" height="0.0037943430052163" style="fill:#000080"/>
<rect x="9.5910634722182" y="0" width="0.011473628942107" height="0.0054482873921054" style="fill:#000080"/>
<rect x="9.6025371011603" y="0" width="0.011473628942107" height="0.0046699606218047" style="fill:#000080"/>
<rect x="9.6140107301024" y="0" width="0.011473628942107" height="0.0037943430052163" style="fill:#000080"/>
<rect x="9.6254843590446" y="0" width="0.011473628942107" height="0.0049618331606674" style="fill:#000080"/>
<rect x="9.6369579879867" y="0" width="0.011473628942107" height="0.0043780880829419" style="fill:#000080"/>
<rect x="9.6484316169288" y="0" width="0.011473628942107" height="0.0039889246977915" style="fill:#000080"/>
<rect x="9.6599052458709" y="0" width="0.011473628942107" height="0.0026268528497651" style="fill:#000080"/>
<rect x="9.671378874813" y="0" width="0.011473628942107" height="0.0044753789292295" style="fill:#000080"/>
<rect x="9.6828525037551" y="0" width="0.011473628942107" height="0.0038916338515039" style="fill:#000080"/>
<rect x="9.6943261326972" y="0" width="0.011473628942107" height="0.0039889246977915" style="fill:#000080"/>
<rect x="9.7057997616393" y="0" width="0.011473628942107" height="0.0035997613126411" style="fill:#000080"/>
<rect x="9.7172733905814" y="0" width="0.011473628942107" height="0.0036970521589287" style="fill:#000080"/>
<rect x="9.7287470195235" y="0" width="0.011473628942107" height="0.0042807972366543" style="fill:#000080"/>
<rect x="9.7402206484656" y="0" width="0.011473628942107" height="0.0041835063903667" style="fill:#000080"/>
<rect x="9.7516942774077" y="0" width="0.011473628942107" height="0.0033078887737783" style="fill:#000080"/>
<rect x="9.7631679063498" y="0" width="0.011473628942107" height="0.0046699606218047" style="fill:#000080"/>
<rect x="9.7746415352919" y="0" width="0.011473628942107" height="0.0029187253886279" style="fill:#000080"/>
<rect x="9.786115164234" y="0" width="0.011473628942107" height="0.0025295620034775" style="fill:#000080"/>
<rect x="9.7975887931761" y="0" width="0.011473628942107" height="0.0031133070812031" style="fill:#000080"/>
<rect x="9.8090624221183" y="0" width="0.011473628942107" height="0.0038916338515039" style="fill:#000080"/>
<rect x="9.8205360510604" y="0" width="0.011473628942107" height="0.0035997613126411" style="fill:#000080"/>
<rect x="9.8320096800025" y="0" width="0.011473628942107" height="0.0026268528497651" style="fill:#000080"/>
<rect x="9.8434833089446" y="0" width="0.011473628942107" height="0.0029187253886279" style="fill:#000080"/>
<rect x="9.8549569378867" y="0" width="0.011473628942107" height="0.0030160162349155" style="fill:#000080"/>
<rect x="9.8664305668288" y="0" width="0.011473628942107" height="0.0038916338515039" style="fill:#000080"/>
<rect x="9.8779041957709" y="0" width="0.011473628942107" height="0.0034051796200659" style="fill:#000080"/>
<rect x="9.889377824713" y="0" width="0.011473628942107" height="0.0039889246977915" style="fill:#000080"/>
<rect x="9.9008514536551" y="0" width="0.011473628942107" height="0.0028214345423403" style="fill:#000080"/>
<rect x="9.9123250825972" y="0" width="0.011473628942107" height="0.0028214345423403" style="fill:#000080"/>
<rect x="9.9237987115393" y="0" width="0.011473628942107" height="0.0036970521589287" style="fill:#000080"/>
<rect x="9.9352723404814" y="0" width="0.011473628942107" height="0.0028214345423403" style="fill:#000080"/>
<rect x="9.9467459694235" y="0" width="0.011473628942107" height="0.0030160162349155" style="fill:#000080"/>
<rect x="9.9582195983656" y="0" width="0.011473628942107" height="0.0024322711571899" style="fill:#000080"/>
<rect x="9.9696932273077" y="0" width="0.011473628942107" height="0.0022376894646147" style="fill:#000080"/>
<rect x="9.9811668562498" y="0" width="0.011473628942107" height="0.0026268528497651" style="fill:#000080"/>
<rect x="9.9926404851919" y="0" width="0.011473628942107" height="0.0024322711571899" style="fill:#000080"/>
<rect x="10.004114114134" y="0" width="0.011473628942107" height="0.0022376894646147" style="fill:#000080"/>
<rect x="10.015587743076" y="0" width="0.011473628942107" height="0.0023349803109023" style="fill:#000080"/>
<rect x="10.027061372018" y="0" width="0.011473628942107" height="0.0019458169257519" style="fill:#000080"/>
<rect x="10.03853500096" y="0" width="0.011473628942107" height="0.0032105979274907" style="fill:#000080"/>
<rect x="10.050008629902" y="0" width="0.011473628942107" height="0.0023349803109023" style="fill:#000080"/>
<rect x="10.061482258845" y="0" width="0.011473628942107" height="0.0022376894646147" style="fill:#000080"/>
<rect x="10.072955887787" y="0" width="0.011473628942107" height="0.0021403986183271" style="fill:#000080"/>
<rect x="10.084429516729" y="0" width="0.011473628942107" height="0.0016539443868891" style="fill:#000080"/>
<rect x="10.095903145671" y="0" width="0.011473628942107" height="0.0019458169257519" style="fill:#000080"/>
<rect x="10.107376774613" y="0" width="0.011473628942107" height="0.0019458169257519" style="fill:#000080"/>
<rect x="10.118850403555" y="0" width="0.011473628942107" height="0.0020431077720395" style="fill:#000080"/>
<rect x="10.130324032497" y="0" width="0.011473628942107" height="0.0031133070812031" style="fill:#000080"/>
<rect x="10.141797661439" y="0" width="0.011473628942107" height="0.0018485260794643" style="fill:#000080"/>
<rect x="10.153271290381" y="0" width="0.011473628942107" height="0.0023349803109023" style="fill:#000080"/>
<rect x="10.164744919324" y="0" width="0.011473628942107" height="0.0025295620034775" style="fill:#000080"/>
<rect x="10.176218548266" y="0" width="0.011473628942107" height="0.0026268528497651" style="fill:#000080"/>
<rect x="10.187692177208" y="0" width="0.011473628942107" height="0.0023349803109023" style="fill:#000080"/>
<rect x="10.19916580615" y="0" width="0.011473628942107" height="0.0020431077720395" style="fill:#000080"/>
<rect x="10.210639435092" y="0" width="0.011473628942107" height="0.0029187253886279" style="fill:#000080"/>
<rect x="10.222113064034" y="0" width="0.011473628942107" height="0.001459362694314" style="fill:#000080"/>
<rect x="10.233586692976" y="0" width="0.011473628942107" height="0.0017512352331767" style="fill:#000080"/>
<rect x="10.245060321918" y="0" width="0.011473628942107" height="0.0021403986183271" style="fill:#000080"/>
<rect x="10.25653395086" y="0" width="0.011473628942107" height="0.0026268528497651" style="fill:#000080"/>
<rect x="10.268007579802" y="0" width="0.011473628942107" height="0.0017512352331767" style="fill:#000080"/>
<rect x="10.279481208745" y="0" width="0.011473628942107" height="0.0018485260794643" style="fill:#000080"/>
<rect x="10.290954837687" y="0" width="0.011473628942107" height="0.0016539443868891" style="fill:#000080"/>
<rect x="10.302428466629" y="0" width="0.011473628942107" height="0.0018485260794643" style="fill:#000080"/>
<rect x="10.313902095571" y="0" width="0.011473628942107" height="0.0017512352331767" style="fill:#000080"/>
<rect x="10.325375724513" y="0" width="0.011473628942107" height="0.0011674901554512" style="fill:#000080"/>
<rect x="10.336849353455" y="0" width="0.011473628942107" height="0.0019458169257519" style="fill:#000080"/>

<!-- Horiz labels -->
<line x1="0.5" y1="0" x2="0.5" y2="0.4318254212475" style="stroke:#a0a0a0;stroke-width:0.0022947257884214"/>
<text x="46.578191566319" y="1" style="fill:#000000" transform="scale(0.011473628942107 -0.00098142141192613) rotate(-90 46.578191566319 1)" text-anchor="end">0.5</text>
<line x1="1" y1="0" x2="1" y2="0.4318254212475" style="stroke:#a0a0a0;stroke-width:0.0022947257884214"/>
<text x="90.156383132639" y="1" style="fill:#000000" transform="scale(0.011473628942107 -0.00098142141192613) rotate(-90 90.156383132639 1)" text-anchor="end">1</text>
<line x1="1.5" y1="0" x2="1.5" y2="0.4318254212475" style="stroke:#a0a0a0;stroke-width:0.0022947257884214"/>
<text x="133.73457469896" y="1" style="fill:#000000" transform="scale(0.011473628942107 -0.00098142141192613) rotate(-90 133.73457469896 1)" text-anchor="end">1.5</text>
<line x1="2" y1="0" x2="2" y2="0.4318254212475" style="stroke:#a0a0a0;stroke-width:0.0022947257884214"/>
<text x="177.31276626528" y="1" style="fill:#000000" transform="scale(0.011473628942107 -0.00098142141192613) rotate(-90 177.31276626528 1)" text-anchor="end">2</text>
<line x1="2.5" y1="0" x2="2.5" y2="0.4318254212475" style="stroke:#a0a0a0;stroke-width:0.0022947257884214"/>
<text x="220.8909578316" y="1" style="fill:#000000" transform="scale(0.011473628942107 -0.00098142141192613) rotate(-90 220.8909578316 1)" text-anchor="end">2.5</text>
<line x1="3" y1="0" x2="3" y2="0.4318254212475" style="stroke:#a0a0a0;stroke-width:0.0022947257884214"/>
<text x="264.46914939792" y="1" style="fill:#000000" transform="scale(0.011473628942107 -0.00098142141192613) rotate(-90 264.46914939792 1)" text-anchor="end">3</text>
<line x1="3.5" y1="0" x2="3.5" y2="0.4318254212475" style="stroke:#a0a0a0;stroke-width:0.0022947257884214"/>
<text x="308.04734096424" y="1" style="fill:#000000" transform="scale(0.011473628942107 -0.00098142141192613) rotate(-90 308.04734096424 1)" text-anchor="end">3.5</text>
<line x1="4" y1="0" x2="4" y2="0.4318254212475" style="stroke:#a0a0a0;stroke-width:0.0022947257884214"/>
<text x="351.62553253056" y="1" style="fill:#000000" transform="scale(0.011473628942107 -0.00098142141192613) rotate(-90 351.62553253056 1)" text-anchor="end">4</text>
<line x1="4.5" y1="0" x2="4.5" y2="0.4318254212475" style="stroke:#a0a0a0;stroke-width:0.0022947257884214"/>
<text x="395.20372409688" y="1" style="fill:#000000" transform="scale(0.011473628942107 -0.00098142141192613) rotate(-90 395.20372409688 1)" text-anchor="end">4.5</text>
<line x1="5" y1="0" x2="5" y2="0.4318254212475" style="stroke:#a0a0a0;stroke-width:0.0022947257884214"/>
<text x="438.78191566319" y="1" style="fill:#000000" transform="scale(0.011473628942107 -0.00098142141192613) rotate(-90 438.78191566319 1)" text-anchor="end">5</text>
<line x1="5.5" y1="0" x2="5.5" y2="0.4318254212475" style="stroke:#a0a0a0;stroke-width:0.0022947257884214"/>
<text x="482.36010722951" y="1" style="fill:#000000" transform="scale(0.011473628942107 -0.00098142141192613) rotate(-90 482.36010722951 1)" text-anchor="end">5.5</text>
<line x1="6" y1="0" x2="6" y2="0.4318254212475" style="stroke:#a0a0a0;stroke-width:0.0022947257884214"/>
<text x="525.93829879583" y="1" style="fill:#000000" transform="scale(0.011473628942107 -0.00098142141192613) rotate(-90 525.93829879583 1)" text-anchor="end">6</text>
<line x1="6.5" y1="0" x2="6.5" y2="0.4318254212475" style="stroke:#a0a0a0;stroke-width:0.0022947257884214"/>
<text x="569.51649036215" y="1" style="fill:#000000" transform="scale(0.011473628942107 -0.00098142141192613) rotate(-90 569.51649036215 1)" text-anchor="end">6.5</text>
<line x1="7" y1="0" x2="7" y2="0.4318254212475" style="stroke:#a0a0a0;stroke-width:0.0022947257884214"/>
<text x="613.09468192847" y="1" style="fill:#000000" transform="scale(0.011473628942107 -0.00098142141192613) rotate(-90 613.09468192847 1)" text-anchor="end">7</text>
<line x1="7.5" y1="0" x2="7.5" y2="0.4318254212475" style="stroke:#a0a0a0;stroke-width:0.0022947257884214"/>
<text x="656.67287349479" y="1" style="fill:#000000" transform="scale(0.011473628942107 -0.00098142141192613) rotate(-90 656.67287349479 1)" text-anchor="end">7.5</text>
<line x1="8" y1="0" x2="8" y2="0.4318254212475" style="stroke:#a0a0a0;stroke-width:0.0022947257884214"/>
<text x="700.25106506111" y="1" style="fill:#000000" transform="scale(0.011473628942107 -0.00098142141192613) rotate(-90 700.25106506111 1)" text-anchor="end">8</text>
<line x1="8.5" y1="0" x2="8.5" y2="0.4318254212475" style="stroke:#a0a0a0;stroke-width:0.0022947257884214"/>
<text x="743.82925662743" y="1" style="fill:#000000" transform="scale(0.011473628942107 -0.00098142141192613) rotate(-90 743.82925662743 1)" text-anchor="end">8.5</text>
<line x1="9" y1="0" x2="9" y2="0.4318254212475" style="stroke:#a0a0a0;stroke-width:0.0022947257884214"/>
<text x="787.40744819375" y="1" style="fill:#000000" transform="scale(0.011473628942107 -0.00098142141192613) rotate(-90 787.40744819375 1)" text-anchor="end">9</text>
<line x1="9.5" y1="0" x2="9.5" y2="0.4318254212475" style="stroke:#a0a0a0;stroke-width:0.0022947257884214"/>
<text x="830.98563976007" y="1" style="fill:#000000" transform="scale(0.011473628942107 -0.00098142141192613) rotate(-90 830.98563976007 1)" text-anchor="end">9.5</text>
<line x1="10" y1="0" x2="10" y2="0.4318254212475" style="stroke:#a0a0a0;stroke-width:0.0022947257884214"/>
<text x="874.56383132639" y="1" style="fill:#000000" transform="scale(0.011473628942107 -0.00098142141192613) rotate(-90 874.56383132639 1)" text-anchor="end">10</text>


<!-- Vert labels -->
<line x1="0.46952846324337" y1="0" x2="10.336849353455" y2="0" style="stroke:#a0a0a0;stroke-width:0.00019628428238523"/>
<text x="39.922402634118" y="3" style="fill:#000000" transform="scale(0.011473628942107 -0.00098142141192613)" text-anchor="end">0</text>
<line x1="0.46952846324337" y1="0.05" x2="10.336849353455" y2="0.05" style="stroke:#a0a0a0;stroke-width:0.00019628428238523"/>
<text x="39.922402634118" y="-47.946514303035" style="fill:#000000" transform="scale(0.011473628942107 -0.00098142141192613)" text-anchor="end">0.05</text>
<line x1="0.46952846324337" y1="0.1" x2="10.336849353455" y2="0.1" style="stroke:#a0a0a0;stroke-width:0.00019628428238523"/>
<text x="39.922402634118" y="-98.893028606071" style="fill:#000000" transform="scale(0.011473628942107 -0.00098142141192613)" text-anchor="end">0.1</text>
<line x1="0.46952846324337" y1="0.15" x2="10.336849353455" y2="0.15" style="stroke:#a0a0a0;stroke-width:0.00019628428238523"/>
<text x="39.922402634118" y="-149.83954290911" style="fill:#000000" transform="scale(0.011473628942107 -0.00098142141192613)" text-anchor="end">0.15</text>
<line x1="0.46952846324337" y1="0.2" x2="10.336849353455" y2="0.2" style="stroke:#a0a0a0;stroke-width:0.00019628428238523"/>
<text x="39.922402634118" y="-200.78605721214" style="fill:#000000" transform="scale(0.011473628942107 -0.00098142141192613)" text-anchor="end">0.2</text>
<line x1="0.46952846324337" y1="0.25" x2="10.336849353455" y2="0.25" style="stroke:#a0a0a0;stroke-width:0.00019628428238523"/>
<text x="39.922402634118" y="-251.73257151518" style="fill:#000000" transform="scale(0.011473628942107 -0.00098142141192613)" text-anchor="end">0.25</text>
<line x1="0.46952846324337" y1="0.3" x2="10.336849353455" y2="0.3" style="stroke:#a0a0a0;stroke-width:0.00019628428238523"/>
<text x="39.922402634118" y="-302.67908581821" style="fill:#000000" transform="scale(0.011473628942107 -0.00098142141192613)" text-anchor="end">0.3</text>
<line x1="0.46952846324337" y1="0.35" x2="10.336849353455" y2="0.35" style="stroke:#a0a0a0;stroke-width:0.00019628428238523"/>
<text x="39.922402634118" y="-353.62560012125" style="fill:#000000" transform="scale(0.011473628942107 -0.00098142141192613)" text-anchor="end">0.35</text>
<line x1="0.46952846324337" y1="0.4" x2="10.336849353455" y2="0.4" style="stroke:#a0a0a0;stroke-width:0.00019628428238523"/>
<text x="39.922402634118" y="-404.57211442428" style="fill:#000000" transform="scale(0.011473628942107 -0.00098142141192613)" text-anchor="end">0.4</text>

</g>

</svg>
