<?xml version="1.0"?><svg xmlns="http://www.w3.org/2000/svg" version="1.1" width="960" height="540">


<defs><clipPath id="chart0-0"><rect x="-6" y="0" width="12" height="1" /></clipPath></defs>
<g transform="translate(100 440) scale(71.666666666667 -440) translate(6 -0)">

<!-- Horiz labels -->
<line x1="-6" y1="0" x2="-6" y2="1" style="stroke:#a0a0a0;stroke-width:0.0027906976744186"/>
<text x="-427" y="1" style="fill:#000000" transform="scale(0.013953488372093 -0.0022727272727273) rotate(-90 -427 1)" text-anchor="end">-6</text>
<line x1="-5.5" y1="0" x2="-5.5" y2="1" style="stroke:#a0a0a0;stroke-width:0.0027906976744186"/>
<text x="-391.16666666667" y="1" style="fill:#000000" transform="scale(0.013953488372093 -0.0022727272727273) rotate(-90 -391.16666666667 1)" text-anchor="end">-5.5</text>
<line x1="-5" y1="0" x2="-5" y2="1" style="stroke:#a0a0a0;stroke-width:0.0027906976744186"/>
<text x="-355.33333333333" y="1" style="fill:#000000" transform="scale(0.013953488372093 -0.0022727272727273) rotate(-90 -355.33333333333 1)" text-anchor="end">-5</text>
<line x1="-4.5" y1="0" x2="-4.5" y2="1" style="stroke:#a0a0a0;stroke-width:0.0027906976744186"/>
<text x="-319.5" y="1" style="fill:#000000" transform="scale(0.013953488372093 -0.0022727272727273) rotate(-90 -319.5 1)" text-anchor="end">-4.5</text>
<line x1="-4" y1="0" x2="-4" y2="1" style="stroke:#a0a0a0;stroke-width:0.0027906976744186"/>
<text x="-283.66666666667" y="1" style="fill:#000000" transform="scale(0.013953488372093 -0.0022727272727273) rotate(-90 -283.66666666667 1)" text-anchor="end">-4</text>
<line x1="-3.5" y1="0" x2="-3.5" y2="1" style="stroke:#a0a0a0;stroke-width:0.0027906976744186"/>
<text x="-247.83333333333" y="1" style="fill:#000000" transform="scale(0.013953488372093 -0.0022727272727273) rotate(-90 -247.83333333333 1)" text-anchor="end">-3.5</text>
<line x1="-3" y1="0" x2="-3" y2="1" style="stroke:#a0a0a0;stroke-width:0.0027906976744186"/>
<text x="-212" y="1" style="fill:#000000" transform="scale(0.013953488372093 -0.0022727272727273) rotate(-90 -212 1)" text-anchor="end">-3</text>
<line x1="-2.5" y1="0" x2="-2.5" y2="1" style="stroke:#a0a0a0;stroke-width:0.0027906976744186"/>
<text x="-176.16666666667" y="1" style="fill:#000000" transform="scale(0.013953488372093 -0.0022727272727273) rotate(-90 -176.16666666667 1)" text-anchor="end">-2.5</text>
<line x1="-2" y1="0" x2="-2" y2="1" style="stroke:#a0a0a0;stroke-width:0.0027906976744186"/>
<text x="-140.33333333333" y="1" style="fill:#000000" transform="scale(0.013953488372093 -0.0022727272727273) rotate(-90 -140.33333333333 1)" text-anchor="end">-2</text>
<line x1="-1.5" y1="0" x2="-1.5" y2="1" style="stroke:#a0a0a0;stroke-width:0.0027906976744186"/>
<text x="-104.5" y="1" style="fill:#000000" transform="scale(0.013953488372093 -0.0022727272727273) rotate(-90 -104.5 1)" text-anchor="end">-1.5</text>
<line x1="-1" y1="0" x2="-1" y2="1" style="stroke:#a0a0a0;stroke-width:0.0027906976744186"/>
<text x="-68.666666666667" y="1" style="fill:#000000" transform="scale(0.013953488372093 -0.0022727272727273) rotate(-90 -68.666666666667 1)" text-anchor="end">-1</text>
<line x1="-0.5" y1="0" x2="-0.5" y2="1" style="stroke:#a0a0a0;stroke-width:0.0027906976744186"/>
<text x="-32.833333333333" y="1" style="fill:#000000" transform="scale(0.013953488372093 -0.0022727272727273) rotate(-90 -32.833333333333 1)" text-anchor="end">-0.5</text>
<line x1="0" y1="0" x2="0" y2="1" style="stroke:#a0a0a0;stroke-width:0.0027906976744186"/>
<text x="3" y="1" style="fill:#000000" transform="scale(0.013953488372093 -0.0022727272727273) rotate(-90 3 1)" text-anchor="end">0</text>
<line x1="0.5" y1="0" x2="0.5" y2="1" style="stroke:#a0a0a0;stroke-width:0.0027906976744186"/>
<text x="38.833333333333" y="1" style="fill:#000000" transform="scale(0.013953488372093 -0.0022727272727273) rotate(-90 38.833333333333 1)" text-anchor="end">0.5</text>
<line x1="1" y1="0" x2="1" y2="1" style="stroke:#a0a0a0;stroke-width:0.0027906976744186"/>
<text x="74.666666666667" y="1" style="fill:#000000" transform="scale(0.013953488372093 -0.0022727272727273) rotate(-90 74.666666666667 1)" text-anchor="end">1</text>
<line x1="1.5" y1="0" x2="1.5" y2="1" style="stroke:#a0a0a0;stroke-width:0.0027906976744186"/>
<text x="110.5" y="1" style="fill:#000000" transform="scale(0.013953488372093 -0.0022727272727273) rotate(-90 110.5 1)" text-anchor="end">1.5</text>
<line x1="2" y1="0" x2="2" y2="1" style="stroke:#a0a0a0;stroke-width:0.0027906976744186"/>
<text x="146.33333333333" y="1" style="fill:#000000" transform="scale(0.013953488372093 -0.0022727272727273) rotate(-90 146.33333333333 1)" text-anchor="end">2</text>
<line x1="2.5" y1="0" x2="2.5" y2="1" style="stroke:#a0a0a0;stroke-width:0.0027906976744186"/>
<text x="182.16666666667" y="1" style="fill:#000000" transform="scale(0.013953488372093 -0.0022727272727273) rotate(-90 182.16666666667 1)" text-anchor="end">2.5</text>
<line x1="3" y1="0" x2="3" y2="1" style="stroke:#a0a0a0;stroke-width:0.0027906976744186"/>
<text x="218" y="1" style="fill:#000000" transform="scale(0.013953488372093 -0.0022727272727273) rotate(-90 218 1)" text-anchor="end">3</text>
<line x1="3.5" y1="0" x2="3.5" y2="1" style="stroke:#a0a0a0;stroke-width:0.0027906976744186"/>
<text x="253.83333333333" y="1" style="fill:#000000" transform="scale(0.013953488372093 -0.0022727272727273) rotate(-90 253.83333333333 1)" text-anchor="end">3.5</text>
<line x1="4" y1="0" x2="4" y2="1" style="stroke:#a0a0a0;stroke-width:0.0027906976744186"/>
<text x="289.66666666667" y="1" style="fill:#000000" transform="scale(0.013953488372093 -0.0022727272727273) rotate(-90 289.66666666667 1)" text-anchor="end">4</text>
<line x1="4.5" y1="0" x2="4.5" y2="1" style="stroke:#a0a0a0;stroke-width:0.0027906976744186"/>
<text x="325.5" y="1" style="fill:#000000" transform="scale(0.013953488372093 -0.0022727272727273) rotate(-90 325.5 1)" text-anchor="end">4.5</text>
<line x1="5" y1="0" x2="5" y2="1" style="stroke:#a0a0a0;stroke-width:0.0027906976744186"/>
<text x="361.33333333333" y="1" style="fill:#000000" transform="scale(0.013953488372093 -0.0022727272727273) rotate(-90 361.33333333333 1)" text-anchor="end">5</text>
<line x1="5.5" y1="0" x2="5.5" y2="1" style="stroke:#a0a0a0;stroke-width:0.0027906976744186"/>
<text x="397.16666666667" y="1" style="fill:#000000" transform="scale(0.013953488372093 -0.0022727272727273) rotate(-90 397.16666666667 1)" text-anchor="end">5.5</text>
<line x1="6" y1="0" x2="6" y2="1" style="stroke:#a0a0a0;stroke-width:0.0027906976744186"/>
<text x="433" y="1" style="fill:#000000" transform="scale(0.013953488372093 -0.0022727272727273) rotate(-90 433 1)" text-anchor="end">6</text>


<!-- Vert labels -->
<line x1="-6" y1="0" x2="6" y2="0" style="stroke:#a0a0a0;stroke-width:0.00045454545454545"/>
<text x="-431" y="3" style="fill:#000000" transform="scale(0.013953488372093 -0.0022727272727273)" text-anchor="end">0</text>
<line x1="-6" y1="0.1" x2="6" y2="0.1" style="stroke:#a0a0a0;stroke-width:0.00045454545454545"/>
<text x="-431" y="-41" style="fill:#000000" transform="scale(0.013953488372093 -0.0022727272727273)" text-anchor="end">0.1</text>
<line x1="-6" y1="0.2" x2="6" y2="0.2" style="stroke:#a0a0a0;stroke-width:0.00045454545454545"/>
<text x="-431" y="-85" style="fill:#000000" transform="scale(0.013953488372093 -0.0022727272727273)" text-anchor="end">0.2</text>
<line x1="-6" y1="0.3" x2="6" y2="0.3" style="stroke:#a0a0a0;stroke-width:0.00045454545454545"/>
<text x="-431" y="-129" style="fill:#000000" transform="scale(0.013953488372093 -0.0022727272727273)" text-anchor="end">0.3</text>
<line x1="-6" y1="0.4" x2="6" y2="0.4" style="stroke:#a0a0a0;stroke-width:0.00045454545454545"/>
<text x="-431" y="-173" style="fill:#000000" transform="scale(0.013953488372093 -0.0022727272727273)" text-anchor="end">0.4</text>
<line x1="-6" y1="0.5" x2="6" y2="0.5" style="stroke:#a0a0a0;stroke-width:0.00045454545454545"/>
<text x="-431" y="-217" style="fill:#000000" transform="scale(0.013953488372093 -0.0022727272727273)" text-anchor="end">0.5</text>
<line x1="-6" y1="0.6" x2="6" y2="0.6" style="stroke:#a0a0a0;stroke-width:0.00045454545454545"/>
<text x="-431" y="-261" style="fill:#000000" transform="scale(0.013953488372093 -0.0022727272727273)" text-anchor="end">0.6</text>
<line x1="-6" y1="0.7" x2="6" y2="0.7" style="stroke:#a0a0a0;stroke-width:0.00045454545454545"/>
<text x="-431" y="-305" style="fill:#000000" transform="scale(0.013953488372093 -0.0022727272727273)" text-anchor="end">0.7</text>
<line x1="-6" y1="0.8" x2="6" y2="0.8" style="stroke:#a0a0a0;stroke-width:0.00045454545454545"/>
<text x="-431" y="-349" style="fill:#000000" transform="scale(0.013953488372093 -0.0022727272727273)" text-anchor="end">0.8</text>
<line x1="-6" y1="0.9" x2="6" y2="0.9" style="stroke:#a0a0a0;stroke-width:0.00045454545454545"/>
<text x="-431" y="-393" style="fill:#000000" transform="scale(0.013953488372093 -0.0022727272727273)" text-anchor="end">0.9</text>
<line x1="-6" y1="1" x2="6" y2="1" style="stroke:#a0a0a0;stroke-width:0.00045454545454545"/>
<text x="-431" y="-437" style="fill:#000000" transform="scale(0.013953488372093 -0.0022727272727273)" text-anchor="end">1</text>

<text x="0" y="33.333333333333" style="fill:#000000" transform="scale(0.02093023255814 -0.0034090909090909)" text-anchor="middle">f1(x) = 1/(1+e^(-x))</text>

<!-- Clipped region -->
<g clip-path="url(#chart0-0)">
<line x1="-6" y1="0.0024726231566348" x2="-5.9720930232558" y2="0.0025424205450684" style="stroke:#7f0000;stroke-width:0.0023076187494548"/>
<line x1="-5.9720930232558" y1="0.0025424205450684" x2="-5.9441860465116" y2="0.0026141830159691" style="stroke:#7f0000;stroke-width:0.0023086008753171"/>
<line x1="-5.9441860465116" y1="0.0026141830159691" x2="-5.9162790697674" y2="0.0026879655988968" style="stroke:#7f0000;stroke-width:0.0023096104920245"/>
<line x1="-5.9162790697674" y1="0.0026879655988968" x2="-5.8883720930233" y2="0.0027638248475256" style="stroke:#7f0000;stroke-width:0.0023106483602526"/>
<line x1="-5.8883720930233" y1="0.0027638248475256" x2="-5.8604651162791" y2="0.002841818880887" style="stroke:#7f0000;stroke-width:0.0023117152612183"/>
<line x1="-5.8604651162791" y1="0.002841818880887" x2="-5.8325581395349" y2="0.0029220074256733" style="stroke:#7f0000;stroke-width:0.0023128119972059"/>
<line x1="-5.8325581395349" y1="0.0029220074256733" x2="-5.8046511627907" y2="0.0030044518596245" style="stroke:#7f0000;stroke-width:0.0023139393921035"/>
<line x1="-5.8046511627907" y1="0.0030044518596245" x2="-5.7767441860465" y2="0.003089215256025" style="stroke:#7f0000;stroke-width:0.0023150982919528"/>
<line x1="-5.7767441860465" y1="0.003089215256025" x2="-5.7488372093023" y2="0.0031763624293326" style="stroke:#7f0000;stroke-width:0.00231628956551"/>
<line x1="-5.7488372093023" y1="0.0031763624293326" x2="-5.7209302325581" y2="0.0032659599819662" style="stroke:#7f0000;stroke-width:0.0023175141048188"/>
<line x1="-5.7209302325581" y1="0.0032659599819662" x2="-5.693023255814" y2="0.0033580763522769" style="stroke:#7f0000;stroke-width:0.0023187728257966"/>
<line x1="-5.693023255814" y1="0.0033580763522769" x2="-5.6651162790698" y2="0.0034527818637288" style="stroke:#7f0000;stroke-width:0.002320066668832"/>
<line x1="-5.6651162790698" y1="0.0034527818637288" x2="-5.6372093023256" y2="0.0035501487753143" style="stroke:#7f0000;stroke-width:0.002321396599396"/>
<line x1="-5.6372093023256" y1="0.0035501487753143" x2="-5.6093023255814" y2="0.0036502513332309" style="stroke:#7f0000;stroke-width:0.0023227636086652"/>
<line x1="-5.6093023255814" y1="0.0036502513332309" x2="-5.5813953488372" y2="0.0037531658238468" style="stroke:#7f0000;stroke-width:0.0023241687141577"/>
<line x1="-5.5813953488372" y1="0.0037531658238468" x2="-5.553488372093" y2="0.0038589706279793" style="stroke:#7f0000;stroke-width:0.0023256129603825"/>
<line x1="-5.553488372093" y1="0.0038589706279793" x2="-5.5255813953488" y2="0.003967746276516" style="stroke:#7f0000;stroke-width:0.0023270974195015"/>
<line x1="-5.5255813953488" y1="0.003967746276516" x2="-5.4976744186047" y2="0.0040795755074042" style="stroke:#7f0000;stroke-width:0.0023286231920046"/>
<line x1="-5.4976744186047" y1="0.0040795755074042" x2="-5.4697674418605" y2="0.0041945433240358" style="stroke:#7f0000;stroke-width:0.0023301914073975"/>
<line x1="-5.4697674418605" y1="0.0041945433240358" x2="-5.4418604651163" y2="0.0043127370550558" style="stroke:#7f0000;stroke-width:0.002331803224904"/>
<line x1="-5.4418604651163" y1="0.0043127370550558" x2="-5.4139534883721" y2="0.0044342464156215" style="stroke:#7f0000;stroke-width:0.0023334598341794"/>
<line x1="-5.4139534883721" y1="0.0044342464156215" x2="-5.3860465116279" y2="0.0045591635701402" style="stroke:#7f0000;stroke-width:0.002335162456039"/>
<line x1="-5.3860465116279" y1="0.0045591635701402" x2="-5.3581395348837" y2="0.0046875831965132" style="stroke:#7f0000;stroke-width:0.0023369123431989"/>
<line x1="-5.3581395348837" y1="0.0046875831965132" x2="-5.3302325581395" y2="0.0048196025519134" style="stroke:#7f0000;stroke-width:0.0023387107810297"/>
<line x1="-5.3302325581395" y1="0.0048196025519134" x2="-5.3023255813954" y2="0.0049553215401242" style="stroke:#7f0000;stroke-width:0.0023405590883237"/>
<line x1="-5.3023255813954" y1="0.0049553215401242" x2="-5.2744186046512" y2="0.0050948427804684" style="stroke:#7f0000;stroke-width:0.0023424586180753"/>
<line x1="-5.2744186046512" y1="0.0050948427804684" x2="-5.246511627907" y2="0.0052382716783527" style="stroke:#7f0000;stroke-width:0.0023444107582737"/>
<line x1="-5.246511627907" y1="0.0052382716783527" x2="-5.2186046511628" y2="0.0053857164974568" style="stroke:#7f0000;stroke-width:0.0023464169327087"/>
<line x1="-5.2186046511628" y1="0.0053857164974568" x2="-5.1906976744186" y2="0.0055372884335933" style="stroke:#7f0000;stroke-width:0.0023484786017892"/>
<line x1="-5.1906976744186" y1="0.0055372884335933" x2="-5.1627906976744" y2="0.0056931016902654" style="stroke:#7f0000;stroke-width:0.002350597263374"/>
<line x1="-5.1627906976744" y1="0.0056931016902654" x2="-5.1348837209302" y2="0.0058532735559488" style="stroke:#7f0000;stroke-width:0.0023527744536145"/>
<line x1="-5.1348837209302" y1="0.0058532735559488" x2="-5.1069767441861" y2="0.0060179244831246" style="stroke:#7f0000;stroke-width:0.0023550117478097"/>
<line x1="-5.1069767441861" y1="0.0060179244831246" x2="-5.0790697674419" y2="0.0061871781690876" style="stroke:#7f0000;stroke-width:0.0023573107612729"/>
<line x1="-5.0790697674419" y1="0.0061871781690876" x2="-5.0511627906977" y2="0.0063611616385555" style="stroke:#7f0000;stroke-width:0.002359673150209"/>
<line x1="-5.0511627906977" y1="0.0063611616385555" x2="-5.0232558139535" y2="0.0065400053281042" style="stroke:#7f0000;stroke-width:0.0023621006126033"/>
<line x1="-5.0232558139535" y1="0.0065400053281042" x2="-4.9953488372093" y2="0.0067238431724517" style="stroke:#7f0000;stroke-width:0.0023645948891208"/>
<line x1="-4.9953488372093" y1="0.0067238431724517" x2="-4.9674418604651" y2="0.0069128126926138" style="stroke:#7f0000;stroke-width:0.0023671577640145"/>
<line x1="-4.9674418604651" y1="0.0069128126926138" x2="-4.9395348837209" y2="0.0071070550859547" style="stroke:#7f0000;stroke-width:0.0023697910660445"/>
<line x1="-4.9395348837209" y1="0.0071070550859547" x2="-4.9116279069768" y2="0.0073067153181508" style="stroke:#7f0000;stroke-width:0.0023724966694044"/>
<line x1="-4.9116279069768" y1="0.0073067153181508" x2="-4.8837209302326" y2="0.007511942217091" style="stroke:#7f0000;stroke-width:0.0023752764946573"/>
<line x1="-4.8837209302326" y1="0.007511942217091" x2="-4.8558139534884" y2="0.0077228885687288" style="stroke:#7f0000;stroke-width:0.0023781325096781"/>
<line x1="-4.8558139534884" y1="0.0077228885687288" x2="-4.8279069767442" y2="0.0079397112149057" style="stroke:#7f0000;stroke-width:0.0023810667306027"/>
<line x1="-4.8279069767442" y1="0.0079397112149057" x2="-4.8" y2="0.0081625711531598" style="stroke:#7f0000;stroke-width:0.0023840812227833"/>
<line x1="-4.8" y1="0.0081625711531598" x2="-4.7720930232558" y2="0.0083916336385358" style="stroke:#7f0000;stroke-width:0.0023871781017482"/>
<line x1="-4.7720930232558" y1="0.0083916336385358" x2="-4.7441860465116" y2="0.0086270682874064" style="stroke:#7f0000;stroke-width:0.0023903595341654"/>
<line x1="-4.7441860465116" y1="0.0086270682874064" x2="-4.7162790697675" y2="0.0088690491833166" style="stroke:#7f0000;stroke-width:0.0023936277388091"/>
<line x1="-4.7162790697675" y1="0.0088690491833166" x2="-4.6883720930233" y2="0.0091177549848591" style="stroke:#7f0000;stroke-width:0.0023969849875271"/>
<line x1="-4.6883720930233" y1="0.0091177549848591" x2="-4.6604651162791" y2="0.0093733690355868" style="stroke:#7f0000;stroke-width:0.0024004336062091"/>
<line x1="-4.6604651162791" y1="0.0093733690355868" x2="-4.6325581395349" y2="0.0096360794759647" style="stroke:#7f0000;stroke-width:0.0024039759757534"/>
<line x1="-4.6325581395349" y1="0.0096360794759647" x2="-4.6046511627907" y2="0.0099060793573637" style="stroke:#7f0000;stroke-width:0.002407614533031"/>
<line x1="-4.6046511627907" y1="0.0099060793573637" x2="-4.5767441860465" y2="0.010183566758093" style="stroke:#7f0000;stroke-width:0.0024113517718451"/>
<line x1="-4.5767441860465" y1="0.010183566758093" x2="-4.5488372093023" y2="0.010468744901465" style="stroke:#7f0000;stroke-width:0.0024151902438849"/>
<line x1="-4.5488372093023" y1="0.010468744901465" x2="-4.5209302325582" y2="0.010761822275887" style="stroke:#7f0000;stroke-width:0.0024191325596712"/>
<line x1="-4.5209302325582" y1="0.010761822275887" x2="-4.493023255814" y2="0.011063012756969" style="stroke:#7f0000;stroke-width:0.0024231813894925"/>
<line x1="-4.493023255814" y1="0.011063012756969" x2="-4.4651162790698" y2="0.011372535731617" style="stroke:#7f0000;stroke-width:0.0024273394643285"/>
<line x1="-4.4651162790698" y1="0.011372535731617" x2="-4.4372093023256" y2="0.011690616224119" style="stroke:#7f0000;stroke-width:0.0024316095767596"/>
<line x1="-4.4372093023256" y1="0.011690616224119" x2="-4.4093023255814" y2="0.012017485024173" style="stroke:#7f0000;stroke-width:0.0024359945818598"/>
<line x1="-4.4093023255814" y1="0.012017485024173" x2="-4.3813953488372" y2="0.012353378816844" style="stroke:#7f0000;stroke-width:0.00244049739807"/>
<line x1="-4.3813953488372" y1="0.012353378816844" x2="-4.353488372093" y2="0.012698540314406" style="stroke:#7f0000;stroke-width:0.0024451210080497"/>
<line x1="-4.353488372093" y1="0.012698540314406" x2="-4.3255813953489" y2="0.01305321839004" style="stroke:#7f0000;stroke-width:0.0024498684595032"/>
<line x1="-4.3255813953489" y1="0.01305321839004" x2="-4.2976744186047" y2="0.013417668213337" style="stroke:#7f0000;stroke-width:0.0024547428659781"/>
<line x1="-4.2976744186047" y1="0.013417668213337" x2="-4.2697674418605" y2="0.013792151387553" style="stroke:#7f0000;stroke-width:0.0024597474076323"/>
<line x1="-4.2697674418605" y1="0.013792151387553" x2="-4.2418604651163" y2="0.014176936088561" style="stroke:#7f0000;stroke-width:0.0024648853319666"/>
<line x1="-4.2418604651163" y1="0.014176936088561" x2="-4.2139534883721" y2="0.014572297205444" style="stroke:#7f0000;stroke-width:0.0024701599545179"/>
<line x1="-4.2139534883721" y1="0.014572297205444" x2="-4.1860465116279" y2="0.014978516482647" style="stroke:#7f0000;stroke-width:0.002475574659511"/>
<line x1="-4.1860465116279" y1="0.014978516482647" x2="-4.1581395348837" y2="0.015395882663609" style="stroke:#7f0000;stroke-width:0.0024811329004627"/>
<line x1="-4.1581395348837" y1="0.015395882663609" x2="-4.1302325581396" y2="0.0158246916358" style="stroke:#7f0000;stroke-width:0.0024868382007363"/>
<line x1="-4.1302325581396" y1="0.0158246916358" x2="-4.1023255813954" y2="0.016265246577062" style="stroke:#7f0000;stroke-width:0.0024926941540395"/>
<line x1="-4.1023255813954" y1="0.016265246577062" x2="-4.0744186046512" y2="0.016717858103142" style="stroke:#7f0000;stroke-width:0.0024987044248623"/>
<line x1="-4.0744186046512" y1="0.016717858103142" x2="-4.046511627907" y2="0.017182844416319" style="stroke:#7f0000;stroke-width:0.0025048727488492"/>
<line x1="-4.046511627907" y1="0.017182844416319" x2="-4.0186046511628" y2="0.017660531454989" style="stroke:#7f0000;stroke-width:0.0025112029331011"/>
<line x1="-4.0186046511628" y1="0.017660531454989" x2="-3.9906976744186" y2="0.018151253044087" style="stroke:#7f0000;stroke-width:0.0025176988563995"/>
<line x1="-3.9906976744186" y1="0.018151253044087" x2="-3.9627906976744" y2="0.018655351046188" style="stroke:#7f0000;stroke-width:0.0025243644693495"/>
<line x1="-3.9627906976744" y1="0.018655351046188" x2="-3.9348837209303" y2="0.019173175513141" style="stroke:#7f0000;stroke-width:0.002531203794433"/>
<line x1="-3.9348837209303" y1="0.019173175513141" x2="-3.9069767441861" y2="0.019705084838066" style="stroke:#7f0000;stroke-width:0.0025382209259668"/>
<line x1="-3.9069767441861" y1="0.019705084838066" x2="-3.8790697674419" y2="0.020251445907529" style="stroke:#7f0000;stroke-width:0.0025454200299588"/>
<line x1="-3.8790697674419" y1="0.020251445907529" x2="-3.8511627906977" y2="0.020812634253714" style="stroke:#7f0000;stroke-width:0.0025528053438543"/>
<line x1="-3.8511627906977" y1="0.020812634253714" x2="-3.8232558139535" y2="0.021389034206359" style="stroke:#7f0000;stroke-width:0.0025603811761657"/>
<line x1="-3.8232558139535" y1="0.021389034206359" x2="-3.7953488372093" y2="0.021981039044268" style="stroke:#7f0000;stroke-width:0.0025681519059772"/>
<line x1="-3.7953488372093" y1="0.021981039044268" x2="-3.7674418604651" y2="0.022589051146129" style="stroke:#7f0000;stroke-width:0.0025761219823164"/>
<line x1="-3.7674418604651" y1="0.022589051146129" x2="-3.739534883721" y2="0.023213482140408" style="stroke:#7f0000;stroke-width:0.0025842959233844"/>
<line x1="-3.739534883721" y1="0.023213482140408" x2="-3.7116279069768" y2="0.023854753054033" style="stroke:#7f0000;stroke-width:0.0025926783156353"/>
<line x1="-3.7116279069768" y1="0.023854753054033" x2="-3.6837209302326" y2="0.024513294459591" style="stroke:#7f0000;stroke-width:0.0026012738126958"/>
<line x1="-3.6837209302326" y1="0.024513294459591" x2="-3.6558139534884" y2="0.025189546620731" style="stroke:#7f0000;stroke-width:0.0026100871341154"/>
<line x1="-3.6558139534884" y1="0.025189546620731" x2="-3.6279069767442" y2="0.025883959635441" style="stroke:#7f0000;stroke-width:0.0026191230639368"/>
<line x1="-3.6279069767442" y1="0.025883959635441" x2="-3.6" y2="0.026596993576865" style="stroke:#7f0000;stroke-width:0.0026283864490769"/>
<line x1="-3.6" y1="0.026596993576865" x2="-3.5720930232558" y2="0.027329118631295" style="stroke:#7f0000;stroke-width:0.0026378821975067"/>
<line x1="-3.5720930232558" y1="0.027329118631295" x2="-3.5441860465116" y2="0.028080815232944" style="stroke:#7f0000;stroke-width:0.002647615276219"/>
<line x1="-3.5441860465116" y1="0.028080815232944" x2="-3.5162790697675" y2="0.028852574195104" style="stroke:#7f0000;stroke-width:0.0026575907089739"/>
<line x1="-3.5162790697675" y1="0.028852574195104" x2="-3.4883720930233" y2="0.029644896837257" style="stroke:#7f0000;stroke-width:0.0026678135738075"/>
<line x1="-3.4883720930233" y1="0.029644896837257" x2="-3.4604651162791" y2="0.03045829510768" style="stroke:#7f0000;stroke-width:0.0026782890002948"/>
<line x1="-3.4604651162791" y1="0.03045829510768" x2="-3.4325581395349" y2="0.03129329170108" style="stroke:#7f0000;stroke-width:0.0026890221665512"/>
<line x1="-3.4325581395349" y1="0.03129329170108" x2="-3.4046511627907" y2="0.032150420170747" style="stroke:#7f0000;stroke-width:0.0027000182959618"/>
<line x1="-3.4046511627907" y1="0.032150420170747" x2="-3.3767441860465" y2="0.033030225034698" style="stroke:#7f0000;stroke-width:0.0027112826536245"/>
<line x1="-3.3767441860465" y1="0.033030225034698" x2="-3.3488372093023" y2="0.033933261875275" style="stroke:#7f0000;stroke-width:0.0027228205424931"/>
<line x1="-3.3488372093023" y1="0.033933261875275" x2="-3.3209302325582" y2="0.034860097431593" style="stroke:#7f0000;stroke-width:0.0027346372992074"/>
<line x1="-3.3209302325582" y1="0.034860097431593" x2="-3.293023255814" y2="0.035811309684255" style="stroke:#7f0000;stroke-width:0.0027467382895954"/>
<line x1="-3.293023255814" y1="0.035811309684255" x2="-3.2651162790698" y2="0.036787487931677" style="stroke:#7f0000;stroke-width:0.0027591289038339"/>
<line x1="-3.2651162790698" y1="0.036787487931677" x2="-3.2372093023256" y2="0.037789232857381" style="stroke:#7f0000;stroke-width:0.0027718145512524"/>
<line x1="-3.2372093023256" y1="0.037789232857381" x2="-3.2093023255814" y2="0.03881715658754" style="stroke:#7f0000;stroke-width:0.0027848006547671"/>
<line x1="-3.2093023255814" y1="0.03881715658754" x2="-3.1813953488372" y2="0.039871882738074" style="stroke:#7f0000;stroke-width:0.0027980926449282"/>
<line x1="-3.1813953488372" y1="0.039871882738074" x2="-3.153488372093" y2="0.040954046450523" style="stroke:#7f0000;stroke-width:0.002811695953567"/>
<line x1="-3.153488372093" y1="0.040954046450523" x2="-3.1255813953489" y2="0.042064294415937" style="stroke:#7f0000;stroke-width:0.0028256160070286"/>
<line x1="-3.1255813953489" y1="0.042064294415937" x2="-3.0976744186047" y2="0.043203284885939" style="stroke:#7f0000;stroke-width:0.0028398582189733"/>
<line x1="-3.0976744186047" y1="0.043203284885939" x2="-3.0697674418605" y2="0.044371687670151" style="stroke:#7f0000;stroke-width:0.0028544279827343"/>
<line x1="-3.0697674418605" y1="0.044371687670151" x2="-3.0418604651163" y2="0.04557018411907" style="stroke:#7f0000;stroke-width:0.0028693306632156"/>
<line x1="-3.0418604651163" y1="0.04557018411907" x2="-3.0139534883721" y2="0.046799467091519" style="stroke:#7f0000;stroke-width:0.0028845715883175"/>
<line x1="-3.0139534883721" y1="0.046799467091519" x2="-2.9860465116279" y2="0.048060240905711" style="stroke:#7f0000;stroke-width:0.0029001560398736"/>
<line x1="-2.9860465116279" y1="0.048060240905711" x2="-2.9581395348837" y2="0.04935322127297" style="stroke:#7f0000;stroke-width:0.002916089244088"/>
<line x1="-2.9581395348837" y1="0.04935322127297" x2="-2.9302325581396" y2="0.050679135213105" style="stroke:#7f0000;stroke-width:0.0029323763614591"/>
<line x1="-2.9302325581396" y1="0.050679135213105" x2="-2.9023255813954" y2="0.052038720950411" style="stroke:#7f0000;stroke-width:0.0029490224761768"/>
<line x1="-2.9023255813954" y1="0.052038720950411" x2="-2.8744186046512" y2="0.053432727789234" style="stroke:#7f0000;stroke-width:0.0029660325849837"/>
<line x1="-2.8744186046512" y1="0.053432727789234" x2="-2.846511627907" y2="0.054861915968017" style="stroke:#7f0000;stroke-width:0.0029834115854867"/>
<line x1="-2.846511627907" y1="0.054861915968017" x2="-2.8186046511628" y2="0.056327056490719" style="stroke:#7f0000;stroke-width:0.0030011642639133"/>
<line x1="-2.8186046511628" y1="0.056327056490719" x2="-2.7906976744186" y2="0.057828930934452" style="stroke:#7f0000;stroke-width:0.0030192952823002"/>
<line x1="-2.7906976744186" y1="0.057828930934452" x2="-2.7627906976744" y2="0.059368331232199" style="stroke:#7f0000;stroke-width:0.00303780916511"/>
<line x1="-2.7627906976744" y1="0.059368331232199" x2="-2.7348837209302" y2="0.060946059429396" style="stroke:#7f0000;stroke-width:0.0030567102852689"/>
<line x1="-2.7348837209302" y1="0.060946059429396" x2="-2.7069767441861" y2="0.062562927413205" style="stroke:#7f0000;stroke-width:0.0030760028496219"/>
<line x1="-2.7069767441861" y1="0.062562927413205" x2="-2.6790697674419" y2="0.064219756613221" style="stroke:#7f0000;stroke-width:0.0030956908838034"/>
<line x1="-2.6790697674419" y1="0.064219756613221" x2="-2.6511627906977" y2="0.065917377672404" style="stroke:#7f0000;stroke-width:0.0031157782165221"/>
<line x1="-2.6511627906977" y1="0.065917377672404" x2="-2.6232558139535" y2="0.067656630086962" style="stroke:#7f0000;stroke-width:0.0031362684632636"/>
<line x1="-2.6232558139535" y1="0.067656630086962" x2="-2.5953488372093" y2="0.069438361813928" style="stroke:#7f0000;stroke-width:0.0031571650094134"/>
<line x1="-2.5953488372093" y1="0.069438361813928" x2="-2.5674418604651" y2="0.071263428845178" style="stroke:#7f0000;stroke-width:0.0031784709928088"/>
<line x1="-2.5674418604651" y1="0.071263428845178" x2="-2.5395348837209" y2="0.073132694746592" style="stroke:#7f0000;stroke-width:0.0032001892857279"/>
<line x1="-2.5395348837209" y1="0.073132694746592" x2="-2.5116279069768" y2="0.075047030161115" style="stroke:#7f0000;stroke-width:0.0032223224763292"/>
<line x1="-2.5116279069768" y1="0.075047030161115" x2="-2.4837209302326" y2="0.077007312274448" style="stroke:#7f0000;stroke-width:0.0032448728495577"/>
<line x1="-2.4837209302326" y1="0.077007312274448" x2="-2.4558139534884" y2="0.079014424242118" style="stroke:#7f0000;stroke-width:0.0032678423675359"/>
<line x1="-2.4558139534884" y1="0.079014424242118" x2="-2.4279069767442" y2="0.081069254576688" style="stroke:#7f0000;stroke-width:0.0032912326494637"/>
<line x1="-2.4279069767442" y1="0.081069254576688" x2="-2.4" y2="0.083172696493921" style="stroke:#7f0000;stroke-width:0.0033150449510527"/>
<line x1="-2.4" y1="0.083172696493921" x2="-2.3720930232558" y2="0.085325647216685" style="stroke:#7f0000;stroke-width:0.003339280143527"/>
<line x1="-2.3720930232558" y1="0.085325647216685" x2="-2.3441860465116" y2="0.087529007235483" style="stroke:#7f0000;stroke-width:0.0033639386922236"/>
<line x1="-2.3441860465116" y1="0.087529007235483" x2="-2.3162790697675" y2="0.08978367952449" style="stroke:#7f0000;stroke-width:0.0033890206348344"/>
<line x1="-2.3162790697675" y1="0.08978367952449" x2="-2.2883720930233" y2="0.092090568712048" style="stroke:#7f0000;stroke-width:0.0034145255593304"/>
<line x1="-2.2883720930233" y1="0.092090568712048" x2="-2.2604651162791" y2="0.09445058020464" style="stroke:#7f0000;stroke-width:0.0034404525816208"/>
<line x1="-2.2604651162791" y1="0.09445058020464" x2="-2.2325581395349" y2="0.096864619263389" style="stroke:#7f0000;stroke-width:0.0034668003229966"/>
<line x1="-2.2325581395349" y1="0.096864619263389" x2="-2.2046511627907" y2="0.099333590032263" style="stroke:#7f0000;stroke-width:0.0034935668874212"/>
<line x1="-2.2046511627907" y1="0.099333590032263" x2="-2.1767441860465" y2="0.1018583945172" style="stroke:#7f0000;stroke-width:0.0035207498387291"/>
<line x1="-2.1767441860465" y1="0.1018583945172" x2="-2.1488372093023" y2="0.1044399315155" style="stroke:#7f0000;stroke-width:0.0035483461778031"/>
<line x1="-2.1488372093023" y1="0.1044399315155" x2="-2.1209302325582" y2="0.10707909549486" style="stroke:#7f0000;stroke-width:0.0035763523198048"/>
<line x1="-2.1209302325582" y1="0.10707909549486" x2="-2.093023255814" y2="0.10977677542175" style="stroke:#7f0000;stroke-width:0.0036047640715367"/>
<line x1="-2.093023255814" y1="0.10977677542175" x2="-2.0651162790698" y2="0.11253385353859" style="stroke:#7f0000;stroke-width:0.0036335766090217"/>
<line x1="-2.0651162790698" y1="0.11253385353859" x2="-2.0372093023256" y2="0.1153512040897" style="stroke:#7f0000;stroke-width:0.0036627844553911"/>
<line x1="-2.0372093023256" y1="0.1153512040897" x2="-2.0093023255814" y2="0.11822969199595" style="stroke:#7f0000;stroke-width:0.003692381459174"/>
<line x1="-2.0093023255814" y1="0.11822969199595" x2="-1.9813953488372" y2="0.12117017147824" style="stroke:#7f0000;stroke-width:0.0037223607730908"/>
<line x1="-1.9813953488372" y1="0.12117017147824" x2="-1.953488372093" y2="0.12417348462996" style="stroke:#7f0000;stroke-width:0.0037527148334534"/>
<line x1="-1.953488372093" y1="0.12417348462996" x2="-1.9255813953488" y2="0.12724045993916" style="stroke:#7f0000;stroke-width:0.0037834353402836"/>
<line x1="-1.9255813953488" y1="0.12724045993916" x2="-1.8976744186047" y2="0.1303719107609" style="stroke:#7f0000;stroke-width:0.0038145132382612"/>
<line x1="-1.8976744186047" y1="0.1303719107609" x2="-1.8697674418605" y2="0.1335686337407" style="stroke:#7f0000;stroke-width:0.0038459386986203"/>
<line x1="-1.8697674418605" y1="0.1335686337407" x2="-1.8418604651163" y2="0.13683140719021" style="stroke:#7f0000;stroke-width:0.0038777011021133"/>
<line x1="-1.8418604651163" y1="0.13683140719021" x2="-1.8139534883721" y2="0.14016098941647" style="stroke:#7f0000;stroke-width:0.0039097890231665"/>
<line x1="-1.8139534883721" y1="0.14016098941647" x2="-1.7860465116279" y2="0.1435581170062" style="stroke:#7f0000;stroke-width:0.0039421902153525"/>
<line x1="-1.7860465116279" y1="0.1435581170062" x2="-1.7581395348837" y2="0.14702350306708" style="stroke:#7f0000;stroke-width:0.0039748915983059"/>
<line x1="-1.7581395348837" y1="0.14702350306708" x2="-1.7302325581395" y2="0.15055783542794" style="stroke:#7f0000;stroke-width:0.0040078792462102"/>
<line x1="-1.7302325581395" y1="0.15055783542794" x2="-1.7023255813954" y2="0.15416177480047" style="stroke:#7f0000;stroke-width:0.0040411383779847"/>
<line x1="-1.7023255813954" y1="0.15416177480047" x2="-1.6744186046512" y2="0.15783595290474" style="stroke:#7f0000;stroke-width:0.0040746533492967"/>
<line x1="-1.6744186046512" y1="0.15783595290474" x2="-1.646511627907" y2="0.16158097056175" style="stroke:#7f0000;stroke-width:0.0041084076465266"/>
<line x1="-1.646511627907" y1="0.16158097056175" x2="-1.6186046511628" y2="0.16539739575614" style="stroke:#7f0000;stroke-width:0.0041423838828066"/>
<line x1="-1.6186046511628" y1="0.16539739575614" x2="-1.5906976744186" y2="0.16928576167244" style="stroke:#7f0000;stroke-width:0.0041765637962544"/>
<line x1="-1.5906976744186" y1="0.16928576167244" x2="-1.5627906976744" y2="0.173246564709" style="stroke:#7f0000;stroke-width:0.0042109282505159"/>
<line x1="-1.5627906976744" y1="0.173246564709" x2="-1.5348837209302" y2="0.17728026247336" style="stroke:#7f0000;stroke-width:0.0042454572377258"/>
<line x1="-1.5348837209302" y1="0.17728026247336" x2="-1.5069767441861" y2="0.18138727176388" style="stroke:#7f0000;stroke-width:0.0042801298839902"/>
<line x1="-1.5069767441861" y1="0.18138727176388" x2="-1.4790697674419" y2="0.18556796654217" style="stroke:#7f0000;stroke-width:0.0043149244574853"/>
<line x1="-1.4790697674419" y1="0.18556796654217" x2="-1.4511627906977" y2="0.18982267590143" style="stroke:#7f0000;stroke-width:0.0043498183792586"/>
<line x1="-1.4511627906977" y1="0.18982267590143" x2="-1.4232558139535" y2="0.19415168203618" style="stroke:#7f0000;stroke-width:0.0043847882368104"/>
<line x1="-1.4232558139535" y1="0.19415168203618" x2="-1.3953488372093" y2="0.198555218219" style="stroke:#7f0000;stroke-width:0.0044198098005198"/>
<line x1="-1.3953488372093" y1="0.198555218219" x2="-1.3674418604651" y2="0.20303346679027" style="stroke:#7f0000;stroke-width:0.0044548580429717"/>
<line x1="-1.3674418604651" y1="0.20303346679027" x2="-1.3395348837209" y2="0.2075865571672" style="stroke:#7f0000;stroke-width:0.0044899071612237"/>
<line x1="-1.3395348837209" y1="0.2075865571672" x2="-1.3116279069768" y2="0.21221456387864" style="stroke:#7f0000;stroke-width:0.0045249306020439"/>
<line x1="-1.3116279069768" y1="0.21221456387864" x2="-1.2837209302326" y2="0.21691750463258" style="stroke:#7f0000;stroke-width:0.0045599010901313"/>
<line x1="-1.2837209302326" y1="0.21691750463258" x2="-1.2558139534884" y2="0.22169533842322" style="stroke:#7f0000;stroke-width:0.0045947906593185"/>
<line x1="-1.2558139534884" y1="0.22169533842322" x2="-1.2279069767442" y2="0.22654796368501" style="stroke:#7f0000;stroke-width:0.0046295706867413"/>
<line x1="-1.2279069767442" y1="0.22654796368501" x2="-1.2" y2="0.23147521650098" style="stroke:#7f0000;stroke-width:0.004664211929941"/>
<line x1="-1.2" y1="0.23147521650098" x2="-1.1720930232558" y2="0.23647686887312" style="stroke:#7f0000;stroke-width:0.0046986845668525"/>
<line x1="-1.1720930232558" y1="0.23647686887312" x2="-1.1441860465116" y2="0.24155262706242" style="stroke:#7f0000;stroke-width:0.0047329582386124"/>
<line x1="-1.1441860465116" y1="0.24155262706242" x2="-1.1162790697675" y2="0.24670213000651" style="stroke:#7f0000;stroke-width:0.0047670020951062"/>
<line x1="-1.1162790697675" y1="0.24670213000651" x2="-1.0883720930233" y2="0.25192494782292" style="stroke:#7f0000;stroke-width:0.0048007848431569"/>
<line x1="-1.0883720930233" y1="0.25192494782292" x2="-1.0604651162791" y2="0.25722058040576" style="stroke:#7f0000;stroke-width:0.0048342747972415"/>
<line x1="-1.0604651162791" y1="0.25722058040576" x2="-1.0325581395349" y2="0.26258845612399" style="stroke:#7f0000;stroke-width:0.0048674399326064"/>
<line x1="-1.0325581395349" y1="0.26258845612399" x2="-1.0046511627907" y2="0.26802793062905" style="stroke:#7f0000;stroke-width:0.0049002479406371"/>
<line x1="-1.0046511627907" y1="0.26802793062905" x2="-0.97674418604653" y2="0.27353828577991" style="stroke:#7f0000;stroke-width:0.0049326662863258"/>
<line x1="-0.97674418604653" y1="0.27353828577991" x2="-0.94883720930234" y2="0.27911872869307" style="stroke:#7f0000;stroke-width:0.0049646622676627"/>
<line x1="-0.94883720930234" y1="0.27911872869307" x2="-0.92093023255815" y2="0.28476839092516" style="stroke:#7f0000;stroke-width:0.0049962030767696"/>
<line x1="-0.92093023255815" y1="0.28476839092516" x2="-0.89302325581397" y2="0.29048632779549" style="stroke:#7f0000;stroke-width:0.0050272558625794"/>
<line x1="-0.89302325581397" y1="0.29048632779549" x2="-0.86511627906978" y2="0.29627151785551" style="stroke:#7f0000;stroke-width:0.0050577877948574"/>
<line x1="-0.86511627906978" y1="0.29627151785551" x2="-0.8372093023256" y2="0.30212286251207" style="stroke:#7f0000;stroke-width:0.0050877661293512"/>
<line x1="-0.8372093023256" y1="0.30212286251207" x2="-0.80930232558141" y2="0.30803918581065" style="stroke:#7f0000;stroke-width:0.0051171582738481"/>
<line x1="-0.80930232558141" y1="0.30803918581065" x2="-0.78139534883722" y2="0.31401923438459" style="stroke:#7f0000;stroke-width:0.0051459318549149"/>
<line x1="-0.78139534883722" y1="0.31401923438459" x2="-0.75348837209304" y2="0.32006167757588" style="stroke:#7f0000;stroke-width:0.0051740547850901"/>
<line x1="-0.75348837209304" y1="0.32006167757588" x2="-0.72558139534885" y2="0.32616510773217" style="stroke:#7f0000;stroke-width:0.0052014953302946"/>
<line x1="-0.72558139534885" y1="0.32616510773217" x2="-0.69767441860467" y2="0.33232804068472" style="stroke:#7f0000;stroke-width:0.0052282221772304"/>
<line x1="-0.69767441860467" y1="0.33232804068472" x2="-0.66976744186048" y2="0.33854891641075" style="stroke:#7f0000;stroke-width:0.0052542045005307"/>
<line x1="-0.66976744186048" y1="0.33854891641075" x2="-0.64186046511629" y2="0.3448260998834" style="stroke:#7f0000;stroke-width:0.0052794120294344"/>
<line x1="-0.64186046511629" y1="0.3448260998834" x2="-0.61395348837211" y2="0.35115788211173" style="stroke:#7f0000;stroke-width:0.0053038151137547"/>
<line x1="-0.61395348837211" y1="0.35115788211173" x2="-0.58604651162792" y2="0.35754248137235" style="stroke:#7f0000;stroke-width:0.0053273847889219"/>
<line x1="-0.58604651162792" y1="0.35754248137235" x2="-0.55813953488374" y2="0.36397804463359" style="stroke:#7f0000;stroke-width:0.0053500928398809"/>
<line x1="-0.55813953488374" y1="0.36397804463359" x2="-0.53023255813955" y2="0.37046264917222" style="stroke:#7f0000;stroke-width:0.0053719118636383"/>
<line x1="-0.53023255813955" y1="0.37046264917222" x2="-0.50232558139536" y2="0.3769943043821" style="stroke:#7f0000;stroke-width:0.0053928153302539"/>
<line x1="-0.50232558139536" y1="0.3769943043821" x2="-0.47441860465118" y2="0.38357095377309" style="stroke:#7f0000;stroke-width:0.0054127776420871"/>
<line x1="-0.47441860465118" y1="0.38357095377309" x2="-0.44651162790699" y2="0.3901904771577" style="stroke:#7f0000;stroke-width:0.0054317741911156"/>
<line x1="-0.44651162790699" y1="0.3901904771577" x2="-0.4186046511628" y2="0.39685069302224" style="stroke:#7f0000;stroke-width:0.0054497814141531"/>
<line x1="-0.4186046511628" y1="0.39685069302224" x2="-0.39069767441862" y2="0.4035493610783" style="stroke:#7f0000;stroke-width:0.0054667768458071"/>
<line x1="-0.39069767441862" y1="0.4035493610783" x2="-0.36279069767443" y2="0.41028418498926" style="stroke:#7f0000;stroke-width:0.0054827391690239"/>
<line x1="-0.36279069767443" y1="0.41028418498926" x2="-0.33488372093025" y2="0.41705281526617" style="stroke:#7f0000;stroke-width:0.0054976482630842"/>
<line x1="-0.33488372093025" y1="0.41705281526617" x2="-0.30697674418606" y2="0.4238528523259" style="stroke:#7f0000;stroke-width:0.0055114852489199"/>
<line x1="-0.30697674418606" y1="0.4238528523259" x2="-0.27906976744187" y2="0.43068184970422" style="stroke:#7f0000;stroke-width:0.0055242325316367"/>
<line x1="-0.27906976744187" y1="0.43068184970422" x2="-0.25116279069769" y2="0.43753731741509" style="stroke:#7f0000;stroke-width:0.0055358738401354"/>
<line x1="-0.25116279069769" y1="0.43753731741509" x2="-0.2232558139535" y2="0.44441672544716" style="stroke:#7f0000;stroke-width:0.0055463942637381"/>
<line x1="-0.2232558139535" y1="0.44441672544716" x2="-0.19534883720932" y2="0.4513175073874" style="stroke:#7f0000;stroke-width:0.0055557802857326"/>
<line x1="-0.19534883720932" y1="0.4513175073874" x2="-0.16744186046513" y2="0.45823706416138" style="stroke:#7f0000;stroke-width:0.0055640198137627"/>
<line x1="-0.16744186046513" y1="0.45823706416138" x2="-0.13953488372094" y2="0.46517276787874" style="stroke:#7f0000;stroke-width:0.0055711022069952"/>
<line x1="-0.13953488372094" y1="0.46517276787874" x2="-0.11162790697676" y2="0.47212196577219" style="stroke:#7f0000;stroke-width:0.0055770183000099"/>
<line x1="-0.11162790697676" y1="0.47212196577219" x2="-0.083720930232572" y2="0.4790819842176" style="stroke:#7f0000;stroke-width:0.0055817604233618"/>
<line x1="-0.083720930232572" y1="0.4790819842176" x2="-0.055813953488386" y2="0.4860501328224" style="stroke:#7f0000;stroke-width:0.005585322420776"/>
<line x1="-0.055813953488386" y1="0.4860501328224" x2="-0.0279069767442" y2="0.49302370856901" style="stroke:#7f0000;stroke-width:0.0055876996629432"/>
<line x1="-0.0279069767442" y1="0.49302370856901" x2="-1.4016565685893e-14" y2="0.5" style="stroke:#7f0000;stroke-width:0.0055888890578871"/>
<line x1="-1.4016565685893e-14" y1="0.5" x2="0.027906976744172" y2="0.50697629143098" style="stroke:#7f0000;stroke-width:0.0055888890578871"/>
<line x1="0.027906976744172" y1="0.50697629143098" x2="0.055813953488358" y2="0.5139498671776" style="stroke:#7f0000;stroke-width:0.0055876996629433"/>
<line x1="0.055813953488358" y1="0.5139498671776" x2="0.083720930232544" y2="0.52091801578239" style="stroke:#7f0000;stroke-width:0.005585322420776"/>
<line x1="0.083720930232544" y1="0.52091801578239" x2="0.11162790697673" y2="0.52787803422781" style="stroke:#7f0000;stroke-width:0.0055817604233617"/>
<line x1="0.11162790697673" y1="0.52787803422781" x2="0.13953488372092" y2="0.53482723212126" style="stroke:#7f0000;stroke-width:0.0055770183000099"/>
<line x1="0.13953488372092" y1="0.53482723212126" x2="0.1674418604651" y2="0.54176293583861" style="stroke:#7f0000;stroke-width:0.0055711022069952"/>
<line x1="0.1674418604651" y1="0.54176293583861" x2="0.19534883720929" y2="0.54868249261259" style="stroke:#7f0000;stroke-width:0.0055640198137627"/>
<line x1="0.19534883720929" y1="0.54868249261259" x2="0.22325581395347" y2="0.55558327455284" style="stroke:#7f0000;stroke-width:0.0055557802857327"/>
<line x1="0.22325581395347" y1="0.55558327455284" x2="0.25116279069766" y2="0.5624626825849" style="stroke:#7f0000;stroke-width:0.0055463942637381"/>
<line x1="0.25116279069766" y1="0.5624626825849" x2="0.27906976744185" y2="0.56931815029577" style="stroke:#7f0000;stroke-width:0.0055358738401355"/>
<line x1="0.27906976744185" y1="0.56931815029577" x2="0.30697674418603" y2="0.57614714767409" style="stroke:#7f0000;stroke-width:0.0055242325316367"/>
<line x1="0.30697674418603" y1="0.57614714767409" x2="0.33488372093022" y2="0.58294718473382" style="stroke:#7f0000;stroke-width:0.0055114852489199"/>
<line x1="0.33488372093022" y1="0.58294718473382" x2="0.3627906976744" y2="0.58971581501073" style="stroke:#7f0000;stroke-width:0.0054976482630842"/>
<line x1="0.3627906976744" y1="0.58971581501073" x2="0.39069767441859" y2="0.5964506389217" style="stroke:#7f0000;stroke-width:0.0054827391690239"/>
<line x1="0.39069767441859" y1="0.5964506389217" x2="0.41860465116278" y2="0.60314930697775" style="stroke:#7f0000;stroke-width:0.0054667768458071"/>
<line x1="0.41860465116278" y1="0.60314930697775" x2="0.44651162790696" y2="0.6098095228423" style="stroke:#7f0000;stroke-width:0.0054497814141532"/>
<line x1="0.44651162790696" y1="0.6098095228423" x2="0.47441860465115" y2="0.6164290462269" style="stroke:#7f0000;stroke-width:0.0054317741911155"/>
<line x1="0.47441860465115" y1="0.6164290462269" x2="0.50232558139534" y2="0.62300569561789" style="stroke:#7f0000;stroke-width:0.0054127776420871"/>
<line x1="0.50232558139534" y1="0.62300569561789" x2="0.53023255813952" y2="0.62953735082777" style="stroke:#7f0000;stroke-width:0.0053928153302539"/>
<line x1="0.53023255813952" y1="0.62953735082777" x2="0.55813953488371" y2="0.6360219553664" style="stroke:#7f0000;stroke-width:0.0053719118636383"/>
<line x1="0.55813953488371" y1="0.6360219553664" x2="0.58604651162789" y2="0.64245751862764" style="stroke:#7f0000;stroke-width:0.005350092839881"/>
<line x1="0.58604651162789" y1="0.64245751862764" x2="0.61395348837208" y2="0.64884211788827" style="stroke:#7f0000;stroke-width:0.0053273847889219"/>
<line x1="0.61395348837208" y1="0.64884211788827" x2="0.64186046511627" y2="0.6551739001166" style="stroke:#7f0000;stroke-width:0.0053038151137548"/>
<line x1="0.64186046511627" y1="0.6551739001166" x2="0.66976744186045" y2="0.66145108358924" style="stroke:#7f0000;stroke-width:0.0052794120294344"/>
<line x1="0.66976744186045" y1="0.66145108358924" x2="0.69767441860464" y2="0.66767195931527" style="stroke:#7f0000;stroke-width:0.0052542045005307"/>
<line x1="0.69767441860464" y1="0.66767195931527" x2="0.72558139534882" y2="0.67383489226783" style="stroke:#7f0000;stroke-width:0.0052282221772304"/>
<line x1="0.72558139534882" y1="0.67383489226783" x2="0.75348837209301" y2="0.67993832242412" style="stroke:#7f0000;stroke-width:0.0052014953302947"/>
<line x1="0.75348837209301" y1="0.67993832242412" x2="0.7813953488372" y2="0.6859807656154" style="stroke:#7f0000;stroke-width:0.0051740547850901"/>
<line x1="0.7813953488372" y1="0.6859807656154" x2="0.80930232558138" y2="0.69196081418935" style="stroke:#7f0000;stroke-width:0.005145931854915"/>
<line x1="0.80930232558138" y1="0.69196081418935" x2="0.83720930232557" y2="0.69787713748792" style="stroke:#7f0000;stroke-width:0.0051171582738481"/>
<line x1="0.83720930232557" y1="0.69787713748792" x2="0.86511627906975" y2="0.70372848214448" style="stroke:#7f0000;stroke-width:0.0050877661293512"/>
<line x1="0.86511627906975" y1="0.70372848214448" x2="0.89302325581394" y2="0.70951367220451" style="stroke:#7f0000;stroke-width:0.0050577877948575"/>
<line x1="0.89302325581394" y1="0.70951367220451" x2="0.92093023255813" y2="0.71523160907483" style="stroke:#7f0000;stroke-width:0.0050272558625795"/>
<line x1="0.92093023255813" y1="0.71523160907483" x2="0.94883720930231" y2="0.72088127130692" style="stroke:#7f0000;stroke-width:0.0049962030767697"/>
<line x1="0.94883720930231" y1="0.72088127130692" x2="0.9767441860465" y2="0.72646171422008" style="stroke:#7f0000;stroke-width:0.0049646622676627"/>
<line x1="0.9767441860465" y1="0.72646171422008" x2="1.0046511627907" y2="0.73197206937095" style="stroke:#7f0000;stroke-width:0.0049326662863258"/>
<line x1="1.0046511627907" y1="0.73197206937095" x2="1.0325581395349" y2="0.73741154387601" style="stroke:#7f0000;stroke-width:0.0049002479406371"/>
<line x1="1.0325581395349" y1="0.73741154387601" x2="1.0604651162791" y2="0.74277941959423" style="stroke:#7f0000;stroke-width:0.0048674399326064"/>
<line x1="1.0604651162791" y1="0.74277941959423" x2="1.0883720930232" y2="0.74807505217707" style="stroke:#7f0000;stroke-width:0.0048342747972416"/>
<line x1="1.0883720930232" y1="0.74807505217707" x2="1.1162790697674" y2="0.75329786999348" style="stroke:#7f0000;stroke-width:0.0048007848431569"/>
<line x1="1.1162790697674" y1="0.75329786999348" x2="1.1441860465116" y2="0.75844737293758" style="stroke:#7f0000;stroke-width:0.0047670020951062"/>
<line x1="1.1441860465116" y1="0.75844737293758" x2="1.1720930232558" y2="0.76352313112687" style="stroke:#7f0000;stroke-width:0.0047329582386124"/>
<line x1="1.1720930232558" y1="0.76352313112687" x2="1.2" y2="0.76852478349902" style="stroke:#7f0000;stroke-width:0.0046986845668525"/>
<line x1="1.2" y1="0.76852478349902" x2="1.2279069767442" y2="0.77345203631499" style="stroke:#7f0000;stroke-width:0.004664211929941"/>
<line x1="1.2279069767442" y1="0.77345203631499" x2="1.2558139534884" y2="0.77830466157678" style="stroke:#7f0000;stroke-width:0.0046295706867414"/>
<line x1="1.2558139534884" y1="0.77830466157678" x2="1.2837209302325" y2="0.78308249536742" style="stroke:#7f0000;stroke-width:0.0045947906593185"/>
<line x1="1.2837209302325" y1="0.78308249536742" x2="1.3116279069767" y2="0.78778543612135" style="stroke:#7f0000;stroke-width:0.0045599010901313"/>
<line x1="1.3116279069767" y1="0.78778543612135" x2="1.3395348837209" y2="0.7924134428328" style="stroke:#7f0000;stroke-width:0.004524930602044"/>
<line x1="1.3395348837209" y1="0.7924134428328" x2="1.3674418604651" y2="0.79696653320972" style="stroke:#7f0000;stroke-width:0.0044899071612237"/>
<line x1="1.3674418604651" y1="0.79696653320972" x2="1.3953488372093" y2="0.801444781781" style="stroke:#7f0000;stroke-width:0.0044548580429717"/>
<line x1="1.3953488372093" y1="0.801444781781" x2="1.4232558139535" y2="0.80584831796382" style="stroke:#7f0000;stroke-width:0.0044198098005199"/>
<line x1="1.4232558139535" y1="0.80584831796382" x2="1.4511627906977" y2="0.81017732409857" style="stroke:#7f0000;stroke-width:0.0043847882368105"/>
<line x1="1.4511627906977" y1="0.81017732409857" x2="1.4790697674418" y2="0.81443203345782" style="stroke:#7f0000;stroke-width:0.0043498183792587"/>
<line x1="1.4790697674418" y1="0.81443203345782" x2="1.506976744186" y2="0.81861272823611" style="stroke:#7f0000;stroke-width:0.0043149244574854"/>
<line x1="1.506976744186" y1="0.81861272823611" x2="1.5348837209302" y2="0.82271973752664" style="stroke:#7f0000;stroke-width:0.0042801298839902"/>
<line x1="1.5348837209302" y1="0.82271973752664" x2="1.5627906976744" y2="0.826753435291" style="stroke:#7f0000;stroke-width:0.0042454572377259"/>
<line x1="1.5627906976744" y1="0.826753435291" x2="1.5906976744186" y2="0.83071423832755" style="stroke:#7f0000;stroke-width:0.0042109282505159"/>
<line x1="1.5906976744186" y1="0.83071423832755" x2="1.6186046511628" y2="0.83460260424386" style="stroke:#7f0000;stroke-width:0.0041765637962545"/>
<line x1="1.6186046511628" y1="0.83460260424386" x2="1.646511627907" y2="0.83841902943824" style="stroke:#7f0000;stroke-width:0.0041423838828066"/>
<line x1="1.646511627907" y1="0.83841902943824" x2="1.6744186046511" y2="0.84216404709526" style="stroke:#7f0000;stroke-width:0.0041084076465266"/>
<line x1="1.6744186046511" y1="0.84216404709526" x2="1.7023255813953" y2="0.84583822519952" style="stroke:#7f0000;stroke-width:0.0040746533492968"/>
<line x1="1.7023255813953" y1="0.84583822519952" x2="1.7302325581395" y2="0.84944216457205" style="stroke:#7f0000;stroke-width:0.0040411383779847"/>
<line x1="1.7302325581395" y1="0.84944216457205" x2="1.7581395348837" y2="0.85297649693292" style="stroke:#7f0000;stroke-width:0.0040078792462102"/>
<line x1="1.7581395348837" y1="0.85297649693292" x2="1.7860465116279" y2="0.85644188299379" style="stroke:#7f0000;stroke-width:0.0039748915983059"/>
<line x1="1.7860465116279" y1="0.85644188299379" x2="1.8139534883721" y2="0.85983901058353" style="stroke:#7f0000;stroke-width:0.0039421902153526"/>
<line x1="1.8139534883721" y1="0.85983901058353" x2="1.8418604651163" y2="0.86316859280979" style="stroke:#7f0000;stroke-width:0.0039097890231666"/>
<line x1="1.8418604651163" y1="0.86316859280979" x2="1.8697674418604" y2="0.8664313662593" style="stroke:#7f0000;stroke-width:0.0038777011021132"/>
<line x1="1.8697674418604" y1="0.8664313662593" x2="1.8976744186046" y2="0.86962808923909" style="stroke:#7f0000;stroke-width:0.0038459386986204"/>
<line x1="1.8976744186046" y1="0.86962808923909" x2="1.9255813953488" y2="0.87275954006084" style="stroke:#7f0000;stroke-width:0.0038145132382613"/>
<line x1="1.9255813953488" y1="0.87275954006084" x2="1.953488372093" y2="0.87582651537004" style="stroke:#7f0000;stroke-width:0.0037834353402836"/>
<line x1="1.953488372093" y1="0.87582651537004" x2="1.9813953488372" y2="0.87882982852176" style="stroke:#7f0000;stroke-width:0.0037527148334535"/>
<line x1="1.9813953488372" y1="0.87882982852176" x2="2.0093023255814" y2="0.88177030800404" style="stroke:#7f0000;stroke-width:0.0037223607730908"/>
<line x1="2.0093023255814" y1="0.88177030800404" x2="2.0372093023256" y2="0.8846487959103" style="stroke:#7f0000;stroke-width:0.003692381459174"/>
<line x1="2.0372093023256" y1="0.8846487959103" x2="2.0651162790698" y2="0.88746614646141" style="stroke:#7f0000;stroke-width:0.0036627844553911"/>
<line x1="2.0651162790698" y1="0.88746614646141" x2="2.0930232558139" y2="0.89022322457824" style="stroke:#7f0000;stroke-width:0.0036335766090217"/>
<line x1="2.0930232558139" y1="0.89022322457824" x2="2.1209302325581" y2="0.89292090450514" style="stroke:#7f0000;stroke-width:0.0036047640715366"/>
<line x1="2.1209302325581" y1="0.89292090450514" x2="2.1488372093023" y2="0.8955600684845" style="stroke:#7f0000;stroke-width:0.0035763523198049"/>
<line x1="2.1488372093023" y1="0.8955600684845" x2="2.1767441860465" y2="0.8981416054828" style="stroke:#7f0000;stroke-width:0.0035483461778031"/>
<line x1="2.1767441860465" y1="0.8981416054828" x2="2.2046511627907" y2="0.90066640996773" style="stroke:#7f0000;stroke-width:0.0035207498387291"/>
<line x1="2.2046511627907" y1="0.90066640996773" x2="2.2325581395349" y2="0.90313538073661" style="stroke:#7f0000;stroke-width:0.0034935668874212"/>
<line x1="2.2325581395349" y1="0.90313538073661" x2="2.2604651162791" y2="0.90554941979536" style="stroke:#7f0000;stroke-width:0.0034668003229966"/>
<line x1="2.2604651162791" y1="0.90554941979536" x2="2.2883720930232" y2="0.90790943128795" style="stroke:#7f0000;stroke-width:0.0034404525816209"/>
<line x1="2.2883720930232" y1="0.90790943128795" x2="2.3162790697674" y2="0.91021632047551" style="stroke:#7f0000;stroke-width:0.0034145255593305"/>
<line x1="2.3162790697674" y1="0.91021632047551" x2="2.3441860465116" y2="0.91247099276451" style="stroke:#7f0000;stroke-width:0.0033890206348344"/>
<line x1="2.3441860465116" y1="0.91247099276451" x2="2.3720930232558" y2="0.91467435278331" style="stroke:#7f0000;stroke-width:0.0033639386922237"/>
<line x1="2.3720930232558" y1="0.91467435278331" x2="2.4" y2="0.91682730350608" style="stroke:#7f0000;stroke-width:0.003339280143527"/>
<line x1="2.4" y1="0.91682730350608" x2="2.4279069767442" y2="0.91893074542331" style="stroke:#7f0000;stroke-width:0.0033150449510527"/>
<line x1="2.4279069767442" y1="0.91893074542331" x2="2.4558139534884" y2="0.92098557575788" style="stroke:#7f0000;stroke-width:0.0032912326494638"/>
<line x1="2.4558139534884" y1="0.92098557575788" x2="2.4837209302325" y2="0.92299268772555" style="stroke:#7f0000;stroke-width:0.0032678423675358"/>
<line x1="2.4837209302325" y1="0.92299268772555" x2="2.5116279069767" y2="0.92495296983888" style="stroke:#7f0000;stroke-width:0.0032448728495577"/>
<line x1="2.5116279069767" y1="0.92495296983888" x2="2.5395348837209" y2="0.92686730525341" style="stroke:#7f0000;stroke-width:0.0032223224763292"/>
<line x1="2.5395348837209" y1="0.92686730525341" x2="2.5674418604651" y2="0.92873657115482" style="stroke:#7f0000;stroke-width:0.0032001892857278"/>
<line x1="2.5674418604651" y1="0.92873657115482" x2="2.5953488372093" y2="0.93056163818607" style="stroke:#7f0000;stroke-width:0.0031784709928088"/>
<line x1="2.5953488372093" y1="0.93056163818607" x2="2.6232558139535" y2="0.93234336991304" style="stroke:#7f0000;stroke-width:0.0031571650094135"/>
<line x1="2.6232558139535" y1="0.93234336991304" x2="2.6511627906977" y2="0.93408262232759" style="stroke:#7f0000;stroke-width:0.0031362684632636"/>
<line x1="2.6511627906977" y1="0.93408262232759" x2="2.6790697674418" y2="0.93578024338678" style="stroke:#7f0000;stroke-width:0.0031157782165221"/>
<line x1="2.6790697674418" y1="0.93578024338678" x2="2.706976744186" y2="0.93743707258679" style="stroke:#7f0000;stroke-width:0.0030956908838035"/>
<line x1="2.706976744186" y1="0.93743707258679" x2="2.7348837209302" y2="0.9390539405706" style="stroke:#7f0000;stroke-width:0.0030760028496219"/>
<line x1="2.7348837209302" y1="0.9390539405706" x2="2.7627906976744" y2="0.9406316687678" style="stroke:#7f0000;stroke-width:0.0030567102852689"/>
<line x1="2.7627906976744" y1="0.9406316687678" x2="2.7906976744186" y2="0.94217106906555" style="stroke:#7f0000;stroke-width:0.0030378091651099"/>
<line x1="2.7906976744186" y1="0.94217106906555" x2="2.8186046511628" y2="0.94367294350928" style="stroke:#7f0000;stroke-width:0.0030192952823002"/>
<line x1="2.8186046511628" y1="0.94367294350928" x2="2.846511627907" y2="0.94513808403198" style="stroke:#7f0000;stroke-width:0.0030011642639134"/>
<line x1="2.846511627907" y1="0.94513808403198" x2="2.8744186046512" y2="0.94656727221076" style="stroke:#7f0000;stroke-width:0.0029834115854868"/>
<line x1="2.8744186046512" y1="0.94656727221076" x2="2.9023255813953" y2="0.94796127904959" style="stroke:#7f0000;stroke-width:0.0029660325849837"/>
<line x1="2.9023255813953" y1="0.94796127904959" x2="2.9302325581395" y2="0.94932086478689" style="stroke:#7f0000;stroke-width:0.0029490224761769"/>
<line x1="2.9302325581395" y1="0.94932086478689" x2="2.9581395348837" y2="0.95064677872703" style="stroke:#7f0000;stroke-width:0.002932376361459"/>
<line x1="2.9581395348837" y1="0.95064677872703" x2="2.9860465116279" y2="0.95193975909429" style="stroke:#7f0000;stroke-width:0.002916089244088"/>
<line x1="2.9860465116279" y1="0.95193975909429" x2="3.0139534883721" y2="0.95320053290848" style="stroke:#7f0000;stroke-width:0.0029001560398737"/>
<line x1="3.0139534883721" y1="0.95320053290848" x2="3.0418604651163" y2="0.95442981588093" style="stroke:#7f0000;stroke-width:0.0028845715883175"/>
<line x1="3.0418604651163" y1="0.95442981588093" x2="3.0697674418605" y2="0.95562831232985" style="stroke:#7f0000;stroke-width:0.0028693306632157"/>
<line x1="3.0697674418605" y1="0.95562831232985" x2="3.0976744186046" y2="0.95679671511406" style="stroke:#7f0000;stroke-width:0.0028544279827342"/>
<line x1="3.0976744186046" y1="0.95679671511406" x2="3.1255813953488" y2="0.95793570558406" style="stroke:#7f0000;stroke-width:0.0028398582189733"/>
<line x1="3.1255813953488" y1="0.95793570558406" x2="3.153488372093" y2="0.95904595354948" style="stroke:#7f0000;stroke-width:0.0028256160070286"/>
<line x1="3.153488372093" y1="0.95904595354948" x2="3.1813953488372" y2="0.96012811726193" style="stroke:#7f0000;stroke-width:0.0028116959535671"/>
<line x1="3.1813953488372" y1="0.96012811726193" x2="3.2093023255814" y2="0.96118284341246" style="stroke:#7f0000;stroke-width:0.0027980926449282"/>
<line x1="3.2093023255814" y1="0.96118284341246" x2="3.2372093023256" y2="0.96221076714262" style="stroke:#7f0000;stroke-width:0.002784800654767"/>
<line x1="3.2372093023256" y1="0.96221076714262" x2="3.2651162790698" y2="0.96321251206832" style="stroke:#7f0000;stroke-width:0.0027718145512525"/>
<line x1="3.2651162790698" y1="0.96321251206832" x2="3.2930232558139" y2="0.96418869031574" style="stroke:#7f0000;stroke-width:0.0027591289038339"/>
<line x1="3.2930232558139" y1="0.96418869031574" x2="3.3209302325581" y2="0.96513990256841" style="stroke:#7f0000;stroke-width:0.0027467382895954"/>
<line x1="3.3209302325581" y1="0.96513990256841" x2="3.3488372093023" y2="0.96606673812472" style="stroke:#7f0000;stroke-width:0.0027346372992073"/>
<line x1="3.3488372093023" y1="0.96606673812472" x2="3.3767441860465" y2="0.9669697749653" style="stroke:#7f0000;stroke-width:0.0027228205424931"/>
<line x1="3.3767441860465" y1="0.9669697749653" x2="3.4046511627907" y2="0.96784957982925" style="stroke:#7f0000;stroke-width:0.0027112826536244"/>
<line x1="3.4046511627907" y1="0.96784957982925" x2="3.4325581395349" y2="0.96870670829892" style="stroke:#7f0000;stroke-width:0.0027000182959619"/>
<line x1="3.4325581395349" y1="0.96870670829892" x2="3.4604651162791" y2="0.96954170489232" style="stroke:#7f0000;stroke-width:0.0026890221665512"/>
<line x1="3.4604651162791" y1="0.96954170489232" x2="3.4883720930232" y2="0.97035510316274" style="stroke:#7f0000;stroke-width:0.0026782890002948"/>
<line x1="3.4883720930232" y1="0.97035510316274" x2="3.5162790697674" y2="0.9711474258049" style="stroke:#7f0000;stroke-width:0.0026678135738075"/>
<line x1="3.5162790697674" y1="0.9711474258049" x2="3.5441860465116" y2="0.97191918476706" style="stroke:#7f0000;stroke-width:0.0026575907089738"/>
<line x1="3.5441860465116" y1="0.97191918476706" x2="3.5720930232558" y2="0.9726708813687" style="stroke:#7f0000;stroke-width:0.002647615276219"/>
<line x1="3.5720930232558" y1="0.9726708813687" x2="3.6" y2="0.97340300642313" style="stroke:#7f0000;stroke-width:0.0026378821975066"/>
<line x1="3.6" y1="0.97340300642313" x2="3.6279069767442" y2="0.97411604036456" style="stroke:#7f0000;stroke-width:0.002628386449077"/>
<line x1="3.6279069767442" y1="0.97411604036456" x2="3.6558139534884" y2="0.97481045337927" style="stroke:#7f0000;stroke-width:0.0026191230639367"/>
<line x1="3.6558139534884" y1="0.97481045337927" x2="3.6837209302326" y2="0.97548670554041" style="stroke:#7f0000;stroke-width:0.0026100871341154"/>
<line x1="3.6837209302326" y1="0.97548670554041" x2="3.7116279069767" y2="0.97614524694597" style="stroke:#7f0000;stroke-width:0.0026012738126958"/>
<line x1="3.7116279069767" y1="0.97614524694597" x2="3.7395348837209" y2="0.97678651785959" style="stroke:#7f0000;stroke-width:0.0025926783156352"/>
<line x1="3.7395348837209" y1="0.97678651785959" x2="3.7674418604651" y2="0.97741094885387" style="stroke:#7f0000;stroke-width:0.0025842959233845"/>
<line x1="3.7674418604651" y1="0.97741094885387" x2="3.7953488372093" y2="0.97801896095573" style="stroke:#7f0000;stroke-width:0.0025761219823164"/>
<line x1="3.7953488372093" y1="0.97801896095573" x2="3.8232558139535" y2="0.97861096579364" style="stroke:#7f0000;stroke-width:0.0025681519059773"/>
<line x1="3.8232558139535" y1="0.97861096579364" x2="3.8511627906977" y2="0.97918736574629" style="stroke:#7f0000;stroke-width:0.0025603811761657"/>
<line x1="3.8511627906977" y1="0.97918736574629" x2="3.8790697674419" y2="0.97974855409247" style="stroke:#7f0000;stroke-width:0.0025528053438543"/>
<line x1="3.8790697674419" y1="0.97974855409247" x2="3.906976744186" y2="0.98029491516193" style="stroke:#7f0000;stroke-width:0.0025454200299588"/>
<line x1="3.906976744186" y1="0.98029491516193" x2="3.9348837209302" y2="0.98082682448686" style="stroke:#7f0000;stroke-width:0.0025382209259669"/>
<line x1="3.9348837209302" y1="0.98082682448686" x2="3.9627906976744" y2="0.98134464895381" style="stroke:#7f0000;stroke-width:0.0025312037944331"/>
<line x1="3.9627906976744" y1="0.98134464895381" x2="3.9906976744186" y2="0.98184874695591" style="stroke:#7f0000;stroke-width:0.0025243644693495"/>
<line x1="3.9906976744186" y1="0.98184874695591" x2="4.0186046511628" y2="0.98233946854501" style="stroke:#7f0000;stroke-width:0.0025176988563995"/>
<line x1="4.0186046511628" y1="0.98233946854501" x2="4.046511627907" y2="0.98281715558368" style="stroke:#7f0000;stroke-width:0.002511202933101"/>
<line x1="4.046511627907" y1="0.98281715558368" x2="4.0744186046512" y2="0.98328214189686" style="stroke:#7f0000;stroke-width:0.0025048727488493"/>
<line x1="4.0744186046512" y1="0.98328214189686" x2="4.1023255813953" y2="0.98373475342294" style="stroke:#7f0000;stroke-width:0.0024987044248623"/>
<line x1="4.1023255813953" y1="0.98373475342294" x2="4.1302325581395" y2="0.9841753083642" style="stroke:#7f0000;stroke-width:0.0024926941540395"/>
<line x1="4.1302325581395" y1="0.9841753083642" x2="4.1581395348837" y2="0.98460411733639" style="stroke:#7f0000;stroke-width:0.0024868382007364"/>
<line x1="4.1581395348837" y1="0.98460411733639" x2="4.1860465116279" y2="0.98502148351735" style="stroke:#7f0000;stroke-width:0.0024811329004627"/>
<line x1="4.1860465116279" y1="0.98502148351735" x2="4.2139534883721" y2="0.98542770279456" style="stroke:#7f0000;stroke-width:0.002475574659511"/>
<line x1="4.2139534883721" y1="0.98542770279456" x2="4.2418604651163" y2="0.98582306391144" style="stroke:#7f0000;stroke-width:0.0024701599545179"/>
<line x1="4.2418604651163" y1="0.98582306391144" x2="4.2697674418605" y2="0.98620784861245" style="stroke:#7f0000;stroke-width:0.0024648853319666"/>
<line x1="4.2697674418605" y1="0.98620784861245" x2="4.2976744186046" y2="0.98658233178666" style="stroke:#7f0000;stroke-width:0.0024597474076323"/>
<line x1="4.2976744186046" y1="0.98658233178666" x2="4.3255813953488" y2="0.98694678160996" style="stroke:#7f0000;stroke-width:0.002454742865978"/>
<line x1="4.3255813953488" y1="0.98694678160996" x2="4.353488372093" y2="0.98730145968559" style="stroke:#7f0000;stroke-width:0.0024498684595032"/>
<line x1="4.353488372093" y1="0.98730145968559" x2="4.3813953488372" y2="0.98764662118316" style="stroke:#7f0000;stroke-width:0.0024451210080498"/>
<line x1="4.3813953488372" y1="0.98764662118316" x2="4.4093023255814" y2="0.98798251497583" style="stroke:#7f0000;stroke-width:0.00244049739807"/>
<line x1="4.4093023255814" y1="0.98798251497583" x2="4.4372093023256" y2="0.98830938377588" style="stroke:#7f0000;stroke-width:0.0024359945818597"/>
<line x1="4.4372093023256" y1="0.98830938377588" x2="4.4651162790698" y2="0.98862746426838" style="stroke:#7f0000;stroke-width:0.0024316095767596"/>
<line x1="4.4651162790698" y1="0.98862746426838" x2="4.4930232558139" y2="0.98893698724303" style="stroke:#7f0000;stroke-width:0.0024273394643286"/>
<line x1="4.4930232558139" y1="0.98893698724303" x2="4.5209302325581" y2="0.98923817772411" style="stroke:#7f0000;stroke-width:0.0024231813894925"/>
<line x1="4.5209302325581" y1="0.98923817772411" x2="4.5488372093023" y2="0.98953125509854" style="stroke:#7f0000;stroke-width:0.0024191325596712"/>
<line x1="4.5488372093023" y1="0.98953125509854" x2="4.5767441860465" y2="0.98981643324191" style="stroke:#7f0000;stroke-width:0.0024151902438848"/>
<line x1="4.5767441860465" y1="0.98981643324191" x2="4.6046511627907" y2="0.99009392064264" style="stroke:#7f0000;stroke-width:0.0024113517718451"/>
<line x1="4.6046511627907" y1="0.99009392064264" x2="4.6325581395349" y2="0.99036392052403" style="stroke:#7f0000;stroke-width:0.0024076145330311"/>
<line x1="4.6325581395349" y1="0.99036392052403" x2="4.6604651162791" y2="0.99062663096441" style="stroke:#7f0000;stroke-width:0.0024039759757534"/>
<line x1="4.6604651162791" y1="0.99062663096441" x2="4.6883720930232" y2="0.99088224501514" style="stroke:#7f0000;stroke-width:0.0024004336062091"/>
<line x1="4.6883720930232" y1="0.99088224501514" x2="4.7162790697674" y2="0.99113095081668" style="stroke:#7f0000;stroke-width:0.002396984987527"/>
<line x1="4.7162790697674" y1="0.99113095081668" x2="4.7441860465116" y2="0.99137293171259" style="stroke:#7f0000;stroke-width:0.0023936277388092"/>
<line x1="4.7441860465116" y1="0.99137293171259" x2="4.7720930232558" y2="0.99160836636146" style="stroke:#7f0000;stroke-width:0.0023903595341654"/>
<line x1="4.7720930232558" y1="0.99160836636146" x2="4.8" y2="0.99183742884684" style="stroke:#7f0000;stroke-width:0.0023871781017481"/>
<line x1="4.8" y1="0.99183742884684" x2="4.8279069767442" y2="0.99206028878509" style="stroke:#7f0000;stroke-width:0.0023840812227834"/>
<line x1="4.8279069767442" y1="0.99206028878509" x2="4.8558139534884" y2="0.99227711143127" style="stroke:#7f0000;stroke-width:0.0023810667306026"/>
<line x1="4.8558139534884" y1="0.99227711143127" x2="4.8837209302325" y2="0.99248805778291" style="stroke:#7f0000;stroke-width:0.0023781325096781"/>
<line x1="4.8837209302325" y1="0.99248805778291" x2="4.9116279069767" y2="0.99269328468185" style="stroke:#7f0000;stroke-width:0.0023752764946573"/>
<line x1="4.9116279069767" y1="0.99269328468185" x2="4.9395348837209" y2="0.99289294491405" style="stroke:#7f0000;stroke-width:0.0023724966694044"/>
<line x1="4.9395348837209" y1="0.99289294491405" x2="4.9674418604651" y2="0.99308718730739" style="stroke:#7f0000;stroke-width:0.0023697910660445"/>
<line x1="4.9674418604651" y1="0.99308718730739" x2="4.9953488372093" y2="0.99327615682755" style="stroke:#7f0000;stroke-width:0.0023671577640146"/>
<line x1="4.9953488372093" y1="0.99327615682755" x2="5.0232558139535" y2="0.9934599946719" style="stroke:#7f0000;stroke-width:0.0023645948891208"/>
<line x1="5.0232558139535" y1="0.9934599946719" x2="5.0511627906977" y2="0.99363883836144" style="stroke:#7f0000;stroke-width:0.0023621006126033"/>
<line x1="5.0511627906977" y1="0.99363883836144" x2="5.0790697674418" y2="0.99381282183091" style="stroke:#7f0000;stroke-width:0.0023596731502091"/>
<line x1="5.0790697674418" y1="0.99381282183091" x2="5.106976744186" y2="0.99398207551688" style="stroke:#7f0000;stroke-width:0.0023573107612729"/>
<line x1="5.106976744186" y1="0.99398207551688" x2="5.1348837209302" y2="0.99414672644405" style="stroke:#7f0000;stroke-width:0.0023550117478097"/>
<line x1="5.1348837209302" y1="0.99414672644405" x2="5.1627906976744" y2="0.99430689830973" style="stroke:#7f0000;stroke-width:0.0023527744536145"/>
<line x1="5.1627906976744" y1="0.99430689830973" x2="5.1906976744186" y2="0.99446271156641" style="stroke:#7f0000;stroke-width:0.002350597263374"/>
<line x1="5.1906976744186" y1="0.99446271156641" x2="5.2186046511628" y2="0.99461428350254" style="stroke:#7f0000;stroke-width:0.0023484786017893"/>
<line x1="5.2186046511628" y1="0.99461428350254" x2="5.246511627907" y2="0.99476172832165" style="stroke:#7f0000;stroke-width:0.0023464169327086"/>
<line x1="5.246511627907" y1="0.99476172832165" x2="5.2744186046511" y2="0.99490515721953" style="stroke:#7f0000;stroke-width:0.0023444107582737"/>
<line x1="5.2744186046511" y1="0.99490515721953" x2="5.3023255813953" y2="0.99504467845988" style="stroke:#7f0000;stroke-width:0.0023424586180752"/>
<line x1="5.3023255813953" y1="0.99504467845988" x2="5.3302325581395" y2="0.99518039744809" style="stroke:#7f0000;stroke-width:0.0023405590883237"/>
<line x1="5.3302325581395" y1="0.99518039744809" x2="5.3581395348837" y2="0.99531241680349" style="stroke:#7f0000;stroke-width:0.0023387107810297"/>
<line x1="5.3581395348837" y1="0.99531241680349" x2="5.3860465116279" y2="0.99544083642986" style="stroke:#7f0000;stroke-width:0.0023369123431989"/>
<line x1="5.3860465116279" y1="0.99544083642986" x2="5.4139534883721" y2="0.99556575358438" style="stroke:#7f0000;stroke-width:0.0023351624560391"/>
<line x1="5.4139534883721" y1="0.99556575358438" x2="5.4418604651163" y2="0.99568726294494" style="stroke:#7f0000;stroke-width:0.0023334598341793"/>
<line x1="5.4418604651163" y1="0.99568726294494" x2="5.4697674418604" y2="0.99580545667596" style="stroke:#7f0000;stroke-width:0.002331803224904"/>
<line x1="5.4697674418604" y1="0.99580545667596" x2="5.4976744186046" y2="0.9959204244926" style="stroke:#7f0000;stroke-width:0.0023301914073975"/>
<line x1="5.4976744186046" y1="0.9959204244926" x2="5.5255813953488" y2="0.99603225372348" style="stroke:#7f0000;stroke-width:0.0023286231920046"/>
<line x1="5.5255813953488" y1="0.99603225372348" x2="5.553488372093" y2="0.99614102937202" style="stroke:#7f0000;stroke-width:0.0023270974195015"/>
<line x1="5.553488372093" y1="0.99614102937202" x2="5.5813953488372" y2="0.99624683417615" style="stroke:#7f0000;stroke-width:0.0023256129603825"/>
<line x1="5.5813953488372" y1="0.99624683417615" x2="5.6093023255814" y2="0.99634974866677" style="stroke:#7f0000;stroke-width:0.0023241687141576"/>
<line x1="5.6093023255814" y1="0.99634974866677" x2="5.6372093023256" y2="0.99644985122469" style="stroke:#7f0000;stroke-width:0.0023227636086652"/>
<line x1="5.6372093023256" y1="0.99644985122469" x2="5.6651162790697" y2="0.99654721813627" style="stroke:#7f0000;stroke-width:0.0023213965993961"/>
<line x1="5.6651162790697" y1="0.99654721813627" x2="5.6930232558139" y2="0.99664192364772" style="stroke:#7f0000;stroke-width:0.002320066668832"/>
<line x1="5.6930232558139" y1="0.99664192364772" x2="5.7209302325581" y2="0.99673404001803" style="stroke:#7f0000;stroke-width:0.0023187728257965"/>
<line x1="5.7209302325581" y1="0.99673404001803" x2="5.7488372093023" y2="0.99682363757067" style="stroke:#7f0000;stroke-width:0.0023175141048188"/>
<line x1="5.7488372093023" y1="0.99682363757067" x2="5.7767441860465" y2="0.99691078474397" style="stroke:#7f0000;stroke-width:0.00231628956551"/>
<line x1="5.7767441860465" y1="0.99691078474397" x2="5.8046511627907" y2="0.99699554814038" style="stroke:#7f0000;stroke-width:0.0023150982919529"/>
<line x1="5.8046511627907" y1="0.99699554814038" x2="5.8325581395349" y2="0.99707799257433" style="stroke:#7f0000;stroke-width:0.0023139393921035"/>
<line x1="5.8325581395349" y1="0.99707799257433" x2="5.860465116279" y2="0.99715818111911" style="stroke:#7f0000;stroke-width:0.0023128119972058"/>
<line x1="5.860465116279" y1="0.99715818111911" x2="5.8883720930232" y2="0.99723617515247" style="stroke:#7f0000;stroke-width:0.0023117152612183"/>
<line x1="5.8883720930232" y1="0.99723617515247" x2="5.9162790697674" y2="0.9973120344011" style="stroke:#7f0000;stroke-width:0.0023106483602526"/>
<line x1="5.9162790697674" y1="0.9973120344011" x2="5.9441860465116" y2="0.99738581698403" style="stroke:#7f0000;stroke-width:0.0023096104920245"/>
<line x1="5.9441860465116" y1="0.99738581698403" x2="5.9720930232558" y2="0.99745757945493" style="stroke:#7f0000;stroke-width:0.0023086008753171"/>
<line x1="5.9720930232558" y1="0.99745757945493" x2="6" y2="0.99752737684337" style="stroke:#7f0000;stroke-width:0.0023076187494547"/>
<line x1="6" y1="0.99752737684337" x2="6.0279069767442" y2="0.99759526269498" style="stroke:#7f0000;stroke-width:0.0023066633737896"/>
</g></g>

</svg>
